<?xml version="1.0" encoding="UTF-8" standalone="no"?><svg xmlns="http://www.w3.org/2000/svg" xmlns:xlink="http://www.w3.org/1999/xlink" contentScriptType="application/ecmascript" contentStyleType="text/css" height="344px" preserveAspectRatio="none" style="width:457px;height:344px;" version="1.1" viewBox="0 0 457 344" width="457px" zoomAndPan="magnify"><defs><filter height="300%" id="f1rt4x0vta71hi" width="300%" x="-1" y="-1"><feGaussianBlur result="blurOut" stdDeviation="2.0"/><feColorMatrix in="blurOut" result="blurOut2" type="matrix" values="0 0 0 0 0 0 0 0 0 0 0 0 0 0 0 0 0 0 .4 0"/><feOffset dx="4.0" dy="4.0" in="blurOut2" result="blurOut3"/><feBlend in="SourceGraphic" in2="blurOut3" mode="normal"/></filter></defs><g><!--MD5=[ac6bea31e13c94c7baa9ad18feb7405e]
class Ticket--><rect fill="#FEFECE" filter="url(#f1rt4x0vta71hi)" height="197.8189" id="Ticket" style="stroke: #A80036; stroke-width: 1.5;" width="160" x="159.5" y="8"/><ellipse cx="218.75" cy="24" fill="#ADD1B2" rx="11" ry="11" style="stroke: #A80036; stroke-width: 1.0;"/><path d="M221.7188,29.6406 Q221.1406,29.9375 220.5,30.0781 Q219.8594,30.2344 219.1563,30.2344 Q216.6563,30.2344 215.3281,28.5938 Q214.0156,26.9375 214.0156,23.8125 Q214.0156,20.6875 215.3281,19.0313 Q216.6563,17.375 219.1563,17.375 Q219.8594,17.375 220.5,17.5313 Q221.1563,17.6875 221.7188,17.9844 L221.7188,20.7031 Q221.0938,20.125 220.5,19.8594 Q219.9063,19.5781 219.2813,19.5781 Q217.9375,19.5781 217.25,20.6563 Q216.5625,21.7188 216.5625,23.8125 Q216.5625,25.9063 217.25,26.9844 Q217.9375,28.0469 219.2813,28.0469 Q219.9063,28.0469 220.5,27.7813 Q221.0938,27.5 221.7188,26.9219 L221.7188,29.6406 Z "/><text fill="#000000" font-family="sans-serif" font-size="12" lengthAdjust="spacingAndGlyphs" textLength="33" x="239.25" y="28.656">Ticket</text><line style="stroke: #A80036; stroke-width: 1.5;" x1="160.5" x2="318.5" y1="40" y2="40"/><ellipse cx="170.5" cy="51" fill="none" rx="3" ry="3" style="stroke: #038048; stroke-width: 1.0;"/><text fill="#000000" font-family="sans-serif" font-size="11" lengthAdjust="spacingAndGlyphs" textLength="72" x="179.5" y="55.7589">ticketId: Long</text><ellipse cx="170.5" cy="65.9819" fill="none" rx="3" ry="3" style="stroke: #038048; stroke-width: 1.0;"/><text fill="#000000" font-family="sans-serif" font-size="11" lengthAdjust="spacingAndGlyphs" textLength="67" x="179.5" y="70.7408">userId: Long</text><ellipse cx="170.5" cy="80.9638" fill="none" rx="3" ry="3" style="stroke: #038048; stroke-width: 1.0;"/><text fill="#000000" font-family="sans-serif" font-size="11" lengthAdjust="spacingAndGlyphs" textLength="69" x="179.5" y="85.7227">trainId: Long</text><ellipse cx="170.5" cy="95.9457" fill="none" rx="3" ry="3" style="stroke: #038048; stroke-width: 1.0;"/><text fill="#000000" font-family="sans-serif" font-size="11" lengthAdjust="spacingAndGlyphs" textLength="60" x="179.5" y="100.7046">carId: Long</text><ellipse cx="170.5" cy="110.9276" fill="none" rx="3" ry="3" style="stroke: #038048; stroke-width: 1.0;"/><text fill="#000000" font-family="sans-serif" font-size="11" lengthAdjust="spacingAndGlyphs" textLength="65" x="179.5" y="115.6865">seatId: Long</text><ellipse cx="170.5" cy="125.9094" fill="none" rx="3" ry="3" style="stroke: #038048; stroke-width: 1.0;"/><text fill="#000000" font-family="sans-serif" font-size="11" lengthAdjust="spacingAndGlyphs" textLength="134" x="179.5" y="130.6684">departureStationId: Long</text><ellipse cx="170.5" cy="140.8913" fill="none" rx="3" ry="3" style="stroke: #038048; stroke-width: 1.0;"/><text fill="#000000" font-family="sans-serif" font-size="11" lengthAdjust="spacingAndGlyphs" textLength="115" x="179.5" y="145.6502">arrivalStationId: Long</text><ellipse cx="170.5" cy="155.8732" fill="none" rx="3" ry="3" style="stroke: #038048; stroke-width: 1.0;"/><text fill="#000000" font-family="sans-serif" font-size="11" lengthAdjust="spacingAndGlyphs" textLength="73" x="179.5" y="160.6321">price: Decimal</text><ellipse cx="170.5" cy="170.8551" fill="none" rx="3" ry="3" style="stroke: #038048; stroke-width: 1.0;"/><text fill="#000000" font-family="sans-serif" font-size="11" lengthAdjust="spacingAndGlyphs" textLength="69" x="179.5" y="175.614">status: String</text><ellipse cx="170.5" cy="185.837" fill="none" rx="3" ry="3" style="stroke: #038048; stroke-width: 1.0;"/><text fill="#000000" font-family="sans-serif" font-size="11" lengthAdjust="spacingAndGlyphs" textLength="106" x="179.5" y="190.5959">bookedAt: DateTime</text><line style="stroke: #A80036; stroke-width: 1.5;" x1="160.5" x2="318.5" y1="197.8189" y2="197.8189"/><!--MD5=[3fd616f346a44cd59a91eb10b19e157c]
class User--><rect fill="#FEFECE" filter="url(#f1rt4x0vta71hi)" height="48" id="User" style="stroke: #A80036; stroke-width: 1.5;" width="59" x="6" y="285"/><ellipse cx="21" cy="301" fill="#ADD1B2" rx="11" ry="11" style="stroke: #A80036; stroke-width: 1.0;"/><path d="M23.9688,306.6406 Q23.3906,306.9375 22.75,307.0781 Q22.1094,307.2344 21.4063,307.2344 Q18.9063,307.2344 17.5781,305.5938 Q16.2656,303.9375 16.2656,300.8125 Q16.2656,297.6875 17.5781,296.0313 Q18.9063,294.375 21.4063,294.375 Q22.1094,294.375 22.75,294.5313 Q23.4063,294.6875 23.9688,294.9844 L23.9688,297.7031 Q23.3438,297.125 22.75,296.8594 Q22.1563,296.5781 21.5313,296.5781 Q20.1875,296.5781 19.5,297.6563 Q18.8125,298.7188 18.8125,300.8125 Q18.8125,302.9063 19.5,303.9844 Q20.1875,305.0469 21.5313,305.0469 Q22.1563,305.0469 22.75,304.7813 Q23.3438,304.5 23.9688,303.9219 L23.9688,306.6406 Z "/><text fill="#000000" font-family="sans-serif" font-size="12" lengthAdjust="spacingAndGlyphs" textLength="27" x="35" y="305.656">User</text><line style="stroke: #A80036; stroke-width: 1.5;" x1="7" x2="64" y1="317" y2="317"/><line style="stroke: #A80036; stroke-width: 1.5;" x1="7" x2="64" y1="325" y2="325"/><!--MD5=[3640288bb00e105a19a150bd568b9756]
class Seat--><rect fill="#FEFECE" filter="url(#f1rt4x0vta71hi)" height="48" id="Seat" style="stroke: #A80036; stroke-width: 1.5;" width="57" x="110" y="285"/><ellipse cx="125" cy="301" fill="#ADD1B2" rx="11" ry="11" style="stroke: #A80036; stroke-width: 1.0;"/><path d="M127.9688,306.6406 Q127.3906,306.9375 126.75,307.0781 Q126.1094,307.2344 125.4063,307.2344 Q122.9063,307.2344 121.5781,305.5938 Q120.2656,303.9375 120.2656,300.8125 Q120.2656,297.6875 121.5781,296.0313 Q122.9063,294.375 125.4063,294.375 Q126.1094,294.375 126.75,294.5313 Q127.4063,294.6875 127.9688,294.9844 L127.9688,297.7031 Q127.3438,297.125 126.75,296.8594 Q126.1563,296.5781 125.5313,296.5781 Q124.1875,296.5781 123.5,297.6563 Q122.8125,298.7188 122.8125,300.8125 Q122.8125,302.9063 123.5,303.9844 Q124.1875,305.0469 125.5313,305.0469 Q126.1563,305.0469 126.75,304.7813 Q127.3438,304.5 127.9688,303.9219 L127.9688,306.6406 Z "/><text fill="#000000" font-family="sans-serif" font-size="12" lengthAdjust="spacingAndGlyphs" textLength="25" x="139" y="305.656">Seat</text><line style="stroke: #A80036; stroke-width: 1.5;" x1="111" x2="166" y1="317" y2="317"/><line style="stroke: #A80036; stroke-width: 1.5;" x1="111" x2="166" y1="325" y2="325"/><!--MD5=[764fca796ce7f635542948d8fc39db5e]
class Payment--><rect fill="#FEFECE" filter="url(#f1rt4x0vta71hi)" height="48" id="Payment" style="stroke: #A80036; stroke-width: 1.5;" width="81" x="202" y="285"/><ellipse cx="217" cy="301" fill="#ADD1B2" rx="11" ry="11" style="stroke: #A80036; stroke-width: 1.0;"/><path d="M219.9688,306.6406 Q219.3906,306.9375 218.75,307.0781 Q218.1094,307.2344 217.4063,307.2344 Q214.9063,307.2344 213.5781,305.5938 Q212.2656,303.9375 212.2656,300.8125 Q212.2656,297.6875 213.5781,296.0313 Q214.9063,294.375 217.4063,294.375 Q218.1094,294.375 218.75,294.5313 Q219.4063,294.6875 219.9688,294.9844 L219.9688,297.7031 Q219.3438,297.125 218.75,296.8594 Q218.1563,296.5781 217.5313,296.5781 Q216.1875,296.5781 215.5,297.6563 Q214.8125,298.7188 214.8125,300.8125 Q214.8125,302.9063 215.5,303.9844 Q216.1875,305.0469 217.5313,305.0469 Q218.1563,305.0469 218.75,304.7813 Q219.3438,304.5 219.9688,303.9219 L219.9688,306.6406 Z "/><text fill="#000000" font-family="sans-serif" font-size="12" lengthAdjust="spacingAndGlyphs" textLength="49" x="231" y="305.656">Payment</text><line style="stroke: #A80036; stroke-width: 1.5;" x1="203" x2="282" y1="317" y2="317"/><line style="stroke: #A80036; stroke-width: 1.5;" x1="203" x2="282" y1="325" y2="325"/><!--MD5=[fc92a9f5bb5fae84dd7fa4034e6b4444]
class Route--><rect fill="#FEFECE" filter="url(#f1rt4x0vta71hi)" height="48" id="Route" style="stroke: #A80036; stroke-width: 1.5;" width="64" x="365.5" y="285"/><ellipse cx="380.5" cy="301" fill="#ADD1B2" rx="11" ry="11" style="stroke: #A80036; stroke-width: 1.0;"/><path d="M383.4688,306.6406 Q382.8906,306.9375 382.25,307.0781 Q381.6094,307.2344 380.9063,307.2344 Q378.4063,307.2344 377.0781,305.5938 Q375.7656,303.9375 375.7656,300.8125 Q375.7656,297.6875 377.0781,296.0313 Q378.4063,294.375 380.9063,294.375 Q381.6094,294.375 382.25,294.5313 Q382.9063,294.6875 383.4688,294.9844 L383.4688,297.7031 Q382.8438,297.125 382.25,296.8594 Q381.6563,296.5781 381.0313,296.5781 Q379.6875,296.5781 379,297.6563 Q378.3125,298.7188 378.3125,300.8125 Q378.3125,302.9063 379,303.9844 Q379.6875,305.0469 381.0313,305.0469 Q381.6563,305.0469 382.25,304.7813 Q382.8438,304.5 383.4688,303.9219 L383.4688,306.6406 Z "/><text fill="#000000" font-family="sans-serif" font-size="12" lengthAdjust="spacingAndGlyphs" textLength="32" x="394.5" y="305.656">Route</text><line style="stroke: #A80036; stroke-width: 1.5;" x1="366.5" x2="428.5" y1="317" y2="317"/><line style="stroke: #A80036; stroke-width: 1.5;" x1="366.5" x2="428.5" y1="325" y2="325"/><!--MD5=[f177e8a7d8f4445411d192bfe0ac99a9]
link Ticket to User--><path d="M159.23,173.19 C136.85,192.6 113.06,214.46 92.5,236 C79.23,249.9 65.82,266.67 55.35,280.53 " fill="none" id="Ticket-&gt;User" style="stroke: #A80036; stroke-width: 1.0;"/><polygon fill="#A80036" points="52.19,284.73,60.7982,279.9448,55.1969,280.7352,54.4065,275.1338,52.19,284.73" style="stroke: #A80036; stroke-width: 1.0;"/><text fill="#000000" font-family="sans-serif" font-size="13" lengthAdjust="spacingAndGlyphs" textLength="64" x="93.5" y="250.897">belongs to</text><text fill="#000000" font-family="sans-serif" font-size="13" lengthAdjust="spacingAndGlyphs" textLength="7" x="144.5075" y="175.4462">1</text><text fill="#000000" font-family="sans-serif" font-size="13" lengthAdjust="spacingAndGlyphs" textLength="7" x="48.5699" y="273.3202">1</text><!--MD5=[1b02a19573a7431ec5c21488b73eecc1]
link Ticket to Seat--><path d="M189.89,206.24 C176.18,233.38 162.39,260.69 152.55,280.18 " fill="none" id="Ticket-&gt;Seat" style="stroke: #A80036; stroke-width: 1.0;"/><polygon fill="#A80036" points="150.14,284.96,157.7586,278.7185,152.3875,280.4936,150.6124,275.1225,150.14,284.96" style="stroke: #A80036; stroke-width: 1.0;"/><text fill="#000000" font-family="sans-serif" font-size="13" lengthAdjust="spacingAndGlyphs" textLength="50" x="175.5" y="250.897">reserves</text><text fill="#000000" font-family="sans-serif" font-size="13" lengthAdjust="spacingAndGlyphs" textLength="7" x="179.1557" y="227.7437">1</text><text fill="#000000" font-family="sans-serif" font-size="13" lengthAdjust="spacingAndGlyphs" textLength="7" x="145.3276" y="273.2068">1</text><!--MD5=[cfef979c6f91d33dbb8c991bd1a348f5]
link Ticket to Payment--><path d="M235.41,206.09 C235.32,222.43 235.61,239.2 236.5,255 C236.95,262.96 237.78,271.57 238.67,279.48 " fill="none" id="Ticket-&gt;Payment" style="stroke: #A80036; stroke-width: 1.0;"/><polygon fill="#A80036" points="239.3,284.83,242.2195,275.4238,238.715,279.8643,234.2744,276.3598,239.3,284.83" style="stroke: #A80036; stroke-width: 1.0;"/><text fill="#000000" font-family="sans-serif" font-size="13" lengthAdjust="spacingAndGlyphs" textLength="59" x="237.5" y="250.897">processes</text><text fill="#000000" font-family="sans-serif" font-size="13" lengthAdjust="spacingAndGlyphs" textLength="7" x="227.8763" y="227.5831">1</text><text fill="#000000" font-family="sans-serif" font-size="13" lengthAdjust="spacingAndGlyphs" textLength="7" x="230.4994" y="273.0418">1</text><!--MD5=[a680f2567ae534305d4680dbd113c254]
link Ticket to Route--><path d="M299.86,206.3 C311.62,223.11 324.39,239.98 337.5,255 C345.58,264.25 355.23,273.43 364.4,281.49 " fill="none" id="Ticket-&gt;Route" style="stroke: #A80036; stroke-width: 1.0;"/><polygon fill="#A80036" points="368.3,284.87,364.1057,275.9589,364.5168,281.6008,358.875,282.0119,368.3,284.87" style="stroke: #A80036; stroke-width: 1.0;"/><text fill="#000000" font-family="sans-serif" font-size="13" lengthAdjust="spacingAndGlyphs" textLength="60" x="338.5" y="250.897">departure</text><text fill="#000000" font-family="sans-serif" font-size="13" lengthAdjust="spacingAndGlyphs" textLength="7" x="296.858" y="227.8079">1</text><text fill="#000000" font-family="sans-serif" font-size="13" lengthAdjust="spacingAndGlyphs" textLength="7" x="352.5119" y="273.0926">1</text><!--MD5=[a680f2567ae534305d4680dbd113c254]
link Ticket to Route--><path d="M319.52,149.15 C351.85,170.34 385.68,199.48 403.5,236 C410.07,249.45 409.21,266.01 406.42,279.85 " fill="none" id="Ticket-&gt;Route-1" style="stroke: #A80036; stroke-width: 1.0;"/><polygon fill="#A80036" points="405.31,284.82,411.1671,276.902,406.3947,279.9391,403.3576,275.1666,405.31,284.82" style="stroke: #A80036; stroke-width: 1.0;"/><text fill="#000000" font-family="sans-serif" font-size="13" lengthAdjust="spacingAndGlyphs" textLength="37" x="408.5" y="250.897">arrival</text><text fill="#000000" font-family="sans-serif" font-size="13" lengthAdjust="spacingAndGlyphs" textLength="7" x="327.4805" y="149.2966">1</text><text fill="#000000" font-family="sans-serif" font-size="13" lengthAdjust="spacingAndGlyphs" textLength="7" x="399.4683" y="273.0291">1</text><!--MD5=[238136d513a138153686d044b16aced5]
@startuml bookingservice
class Ticket {
  +ticketId: Long
  +userId: Long
  +trainId: Long
  +carId: Long
  +seatId: Long
  +departureStationId: Long
  +arrivalStationId: Long
  +price: Decimal
  +status: String
  +bookedAt: DateTime
}



Ticket "1" - -> "1" User : belongs to
Ticket "1" - -> "1" Seat : reserves
Ticket "1" - -> "1" Payment : processes
Ticket "1" - -> "1" Route : departure
Ticket "1" - -> "1" Route : arrival

@enduml

PlantUML version 1.2020.02(Sun Mar 01 10:22:07 UTC 2020)
(GPL source distribution)
Java Runtime: OpenJDK Runtime Environment
JVM: OpenJDK 64-Bit Server VM
Java Version: 21.0.5+11-Ubuntu-1ubuntu124.04
Operating System: Linux
Default Encoding: UTF-8
Language: en
Country: US
--></g></svg>