<svg xmlns="http://www.w3.org/2000/svg" xmlns:xlink="http://www.w3.org/1999/xlink" contentStyleType="text/css" height="507px" preserveAspectRatio="none" style="width:1343px;height:507px;background:#FFFFFF;" version="1.1" viewBox="0 0 1343 507" width="1343px" zoomAndPan="magnify"><defs/><g><!--entity User--><g id="elem_User"><ellipse cx="430.5" cy="470" fill="#008000" rx="12" ry="12" style="stroke:#181818;stroke-width:0.5;"/><line style="stroke:#181818;stroke-width:0.5;" x1="418.5" x2="442.5" y1="484" y2="484"/><text fill="#000000" font-family="sans-serif" font-size="14" lengthAdjust="spacing" textLength="31.9102" x="414.5449" y="498.9951">User</text></g><!--entity Train--><g id="elem_Train"><ellipse cx="741.3247" cy="236" fill="#008000" rx="12" ry="12" style="stroke:#181818;stroke-width:0.5;"/><line style="stroke:#181818;stroke-width:0.5;" x1="729.3247" x2="753.3247" y1="250" y2="250"/><text fill="#000000" font-family="sans-serif" font-size="14" lengthAdjust="spacing" textLength="35.6494" x="723.5" y="264.9951">Train</text></g><!--entity Station--><g id="elem_Station"><ellipse cx="1174.3862" cy="236" fill="#008000" rx="12" ry="12" style="stroke:#181818;stroke-width:0.5;"/><line style="stroke:#181818;stroke-width:0.5;" x1="1162.3862" x2="1186.3862" y1="250" y2="250"/><text fill="#000000" font-family="sans-serif" font-size="14" lengthAdjust="spacing" textLength="49.7725" x="1149.5" y="264.9951">Station</text></g><!--entity Route--><g id="elem_Route"><ellipse cx="905.6343" cy="127" fill="#0000FF" rx="12" ry="12" style="stroke:#181818;stroke-width:0.5;"/><line style="stroke:#181818;stroke-width:0.5;" x1="893.6343" x2="917.6343" y1="141" y2="141"/><text fill="#000000" font-family="sans-serif" font-size="14" lengthAdjust="spacing" textLength="41.2686" x="885" y="155.9951">Route</text></g><!--entity Car--><g id="elem_Car"><ellipse cx="890.5" cy="345" fill="#008000" rx="12" ry="12" style="stroke:#181818;stroke-width:0.5;"/><line style="stroke:#181818;stroke-width:0.5;" x1="878.5" x2="902.5" y1="359" y2="359"/><text fill="#000000" font-family="sans-serif" font-size="14" lengthAdjust="spacing" textLength="24.1104" x="878.4448" y="373.9951">Car</text></g><!--entity Seat--><g id="elem_Seat"><ellipse cx="961.5" cy="470" fill="#008000" rx="12" ry="12" style="stroke:#181818;stroke-width:0.5;"/><line style="stroke:#181818;stroke-width:0.5;" x1="949.5" x2="973.5" y1="484" y2="484"/><text fill="#000000" font-family="sans-serif" font-size="14" lengthAdjust="spacing" textLength="31.5684" x="945.7158" y="498.9951">Seat</text></g><!--entity Ticket--><g id="elem_Ticket"><ellipse cx="818.6743" cy="345" fill="#008000" rx="12" ry="12" style="stroke:#181818;stroke-width:0.5;"/><line style="stroke:#181818;stroke-width:0.5;" x1="806.6743" x2="830.6743" y1="359" y2="359"/><text fill="#000000" font-family="sans-serif" font-size="14" lengthAdjust="spacing" textLength="42.3486" x="797.5" y="373.9951">Ticket</text></g><!--entity Payment--><g id="elem_Payment"><ellipse cx="818.46" cy="470" fill="#008000" rx="12" ry="12" style="stroke:#181818;stroke-width:0.5;"/><line style="stroke:#181818;stroke-width:0.5;" x1="806.46" x2="830.46" y1="484" y2="484"/><text fill="#000000" font-family="sans-serif" font-size="14" lengthAdjust="spacing" textLength="61.9199" x="787.5" y="498.9951">Payment</text></g><!--entity User.first_name--><g id="elem_User.first_name"><ellipse cx="159.7104" cy="345" fill="#F1F1F1" rx="12" ry="12" style="stroke:#181818;stroke-width:0.5;"/><line style="stroke:#181818;stroke-width:0.5;" x1="147.7104" x2="171.7104" y1="359" y2="359"/><text fill="#000000" font-family="sans-serif" font-size="14" lengthAdjust="spacing" textLength="110.4209" x="104.5" y="373.9951">User.first_name</text></g><!--entity User.last_name--><g id="elem_User.last_name"><ellipse cx="303.6577" cy="345" fill="#F1F1F1" rx="12" ry="12" style="stroke:#181818;stroke-width:0.5;"/><line style="stroke:#181818;stroke-width:0.5;" x1="291.6577" x2="315.6577" y1="359" y2="359"/><text fill="#000000" font-family="sans-serif" font-size="14" lengthAdjust="spacing" textLength="108.3154" x="249.5" y="373.9951">User.last_name</text></g><!--entity User.email--><g id="elem_User.email"><ellipse cx="430.4849" cy="345" fill="#F1F1F1" rx="12" ry="12" style="stroke:#181818;stroke-width:0.5;"/><line style="stroke:#181818;stroke-width:0.5;" x1="418.4849" x2="442.4849" y1="359" y2="359"/><text fill="#000000" font-family="sans-serif" font-size="14" lengthAdjust="spacing" textLength="74.9697" x="393" y="373.9951">User.email</text></g><!--entity User.phone--><g id="elem_User.phone"><ellipse cx="543.5859" cy="345" fill="#F1F1F1" rx="12" ry="12" style="stroke:#181818;stroke-width:0.5;"/><line style="stroke:#181818;stroke-width:0.5;" x1="531.5859" x2="555.5859" y1="359" y2="359"/><text fill="#000000" font-family="sans-serif" font-size="14" lengthAdjust="spacing" textLength="80.1719" x="503.5" y="373.9951">User.phone</text></g><!--entity User.password_hash--><g id="elem_User.password_hash"><ellipse cx="690.3457" cy="345" fill="#F1F1F1" rx="12" ry="12" style="stroke:#181818;stroke-width:0.5;"/><line style="stroke:#181818;stroke-width:0.5;" x1="678.3457" x2="702.3457" y1="359" y2="359"/><text fill="#000000" font-family="sans-serif" font-size="14" lengthAdjust="spacing" textLength="143.6914" x="618.5" y="373.9951">User.password_hash</text></g><!--entity User.role--><g id="elem_User.role"><ellipse cx="37.5923" cy="345" fill="#F1F1F1" rx="12" ry="12" style="stroke:#181818;stroke-width:0.5;"/><line style="stroke:#181818;stroke-width:0.5;" x1="25.5923" x2="49.5923" y1="359" y2="359"/><text fill="#000000" font-family="sans-serif" font-size="14" lengthAdjust="spacing" textLength="63.1846" x="6" y="373.9951">User.role</text></g><!--entity Train.number--><g id="elem_Train.number"><ellipse cx="641.3696" cy="127" fill="#F1F1F1" rx="12" ry="12" style="stroke:#181818;stroke-width:0.5;"/><line style="stroke:#181818;stroke-width:0.5;" x1="629.3696" x2="653.3696" y1="141" y2="141"/><text fill="#000000" font-family="sans-serif" font-size="14" lengthAdjust="spacing" textLength="94.7393" x="594" y="155.9951">Train.number</text></g><!--entity Train.name--><g id="elem_Train.name"><ellipse cx="764.4014" cy="127" fill="#F1F1F1" rx="12" ry="12" style="stroke:#181818;stroke-width:0.5;"/><line style="stroke:#181818;stroke-width:0.5;" x1="752.4014" x2="776.4014" y1="141" y2="141"/><text fill="#000000" font-family="sans-serif" font-size="14" lengthAdjust="spacing" textLength="79.8027" x="724.5" y="155.9951">Train.name</text></g><!--entity Train.total_cars--><g id="elem_Train.total_cars"><ellipse cx="1228.7192" cy="18" fill="#F1F1F1" rx="12" ry="12" style="stroke:#181818;stroke-width:0.5;"/><line style="stroke:#181818;stroke-width:0.5;" x1="1216.7192" x2="1240.7192" y1="32" y2="32"/><text fill="#000000" font-family="sans-serif" font-size="14" lengthAdjust="spacing" textLength="108.4385" x="1174.5" y="46.9951">Train.total_cars</text></g><!--entity Station.name--><g id="elem_Station.name"><ellipse cx="1174.4629" cy="127" fill="#F1F1F1" rx="12" ry="12" style="stroke:#181818;stroke-width:0.5;"/><line style="stroke:#181818;stroke-width:0.5;" x1="1162.4629" x2="1186.4629" y1="141" y2="141"/><text fill="#000000" font-family="sans-serif" font-size="14" lengthAdjust="spacing" textLength="93.9258" x="1127.5" y="155.9951">Station.name</text></g><!--entity Station.city--><g id="elem_Station.city"><ellipse cx="1296.292" cy="127" fill="#F1F1F1" rx="12" ry="12" style="stroke:#181818;stroke-width:0.5;"/><line style="stroke:#181818;stroke-width:0.5;" x1="1284.292" x2="1308.292" y1="141" y2="141"/><text fill="#000000" font-family="sans-serif" font-size="14" lengthAdjust="spacing" textLength="79.584" x="1256.5" y="155.9951">Station.city</text></g><!--entity Station.country--><g id="elem_Station.country"><ellipse cx="1038.3809" cy="127" fill="#F1F1F1" rx="12" ry="12" style="stroke:#181818;stroke-width:0.5;"/><line style="stroke:#181818;stroke-width:0.5;" x1="1026.3809" x2="1050.3809" y1="141" y2="141"/><text fill="#000000" font-family="sans-serif" font-size="14" lengthAdjust="spacing" textLength="107.7617" x="984.5" y="155.9951">Station.country</text></g><!--entity Route.arrival_time--><g id="elem_Route.arrival_time"><ellipse cx="728.5415" cy="18" fill="#F1F1F1" rx="12" ry="12" style="stroke:#181818;stroke-width:0.5;"/><line style="stroke:#181818;stroke-width:0.5;" x1="716.5415" x2="740.5415" y1="32" y2="32"/><text fill="#000000" font-family="sans-serif" font-size="14" lengthAdjust="spacing" textLength="129.083" x="664" y="46.9951">Route.arrival_time</text></g><!--entity Route.departure_time--><g id="elem_Route.departure_time"><ellipse cx="905.4009" cy="18" fill="#F1F1F1" rx="12" ry="12" style="stroke:#181818;stroke-width:0.5;"/><line style="stroke:#181818;stroke-width:0.5;" x1="893.4009" x2="917.4009" y1="32" y2="32"/><text fill="#000000" font-family="sans-serif" font-size="14" lengthAdjust="spacing" textLength="153.8018" x="828.5" y="46.9951">Route.departure_time</text></g><!--entity Route.stop_order--><g id="elem_Route.stop_order"><ellipse cx="1078.2656" cy="18" fill="#F1F1F1" rx="12" ry="12" style="stroke:#181818;stroke-width:0.5;"/><line style="stroke:#181818;stroke-width:0.5;" x1="1066.2656" x2="1090.2656" y1="32" y2="32"/><text fill="#000000" font-family="sans-serif" font-size="14" lengthAdjust="spacing" textLength="120.5313" x="1018" y="46.9951">Route.stop_order</text></g><!--entity Car.number--><g id="elem_Car.number"><ellipse cx="836.6001" cy="236" fill="#F1F1F1" rx="12" ry="12" style="stroke:#181818;stroke-width:0.5;"/><line style="stroke:#181818;stroke-width:0.5;" x1="824.6001" x2="848.6001" y1="250" y2="250"/><text fill="#000000" font-family="sans-serif" font-size="14" lengthAdjust="spacing" textLength="83.2002" x="795" y="264.9951">Car.number</text></g><!--entity Car.type--><g id="elem_Car.type"><ellipse cx="943.4175" cy="236" fill="#F1F1F1" rx="12" ry="12" style="stroke:#181818;stroke-width:0.5;"/><line style="stroke:#181818;stroke-width:0.5;" x1="931.4175" x2="955.4175" y1="250" y2="250"/><text fill="#000000" font-family="sans-serif" font-size="14" lengthAdjust="spacing" textLength="59.835" x="913.5" y="264.9951">Car.type</text></g><!--entity Car.total_seats--><g id="elem_Car.total_seats"><ellipse cx="1061.4214" cy="236" fill="#F1F1F1" rx="12" ry="12" style="stroke:#181818;stroke-width:0.5;"/><line style="stroke:#181818;stroke-width:0.5;" x1="1049.4214" x2="1073.4214" y1="250" y2="250"/><text fill="#000000" font-family="sans-serif" font-size="14" lengthAdjust="spacing" textLength="104.8428" x="1009" y="264.9951">Car.total_seats</text></g><!--entity Seat.number--><g id="elem_Seat.number"><ellipse cx="987.3291" cy="345" fill="#F1F1F1" rx="12" ry="12" style="stroke:#181818;stroke-width:0.5;"/><line style="stroke:#181818;stroke-width:0.5;" x1="975.3291" x2="999.3291" y1="359" y2="359"/><text fill="#000000" font-family="sans-serif" font-size="14" lengthAdjust="spacing" textLength="90.6582" x="942" y="373.9951">Seat.number</text></g><!--entity Seat.type--><g id="elem_Seat.type"><ellipse cx="1101.6465" cy="345" fill="#F1F1F1" rx="12" ry="12" style="stroke:#181818;stroke-width:0.5;"/><line style="stroke:#181818;stroke-width:0.5;" x1="1089.6465" x2="1113.6465" y1="359" y2="359"/><text fill="#000000" font-family="sans-serif" font-size="14" lengthAdjust="spacing" textLength="67.293" x="1068" y="373.9951">Seat.type</text></g><!--link Ticket to User--><g id="link_Ticket_User"><path d="M797.33,368.17 C791.99,371.36 786.15,374.53 780.5,377 C657.41,430.69 497.51,464.15 446.72,473.97 " fill="none" id="Ticket-User" style="stroke:#181818;stroke-width:1;"/><text fill="#000000" font-family="sans-serif" font-size="13" lengthAdjust="spacing" textLength="23.0356" x="770.2934" y="367.5141">0..*</text><text fill="#000000" font-family="sans-serif" font-size="13" lengthAdjust="spacing" textLength="8.271" x="454.4805" y="466.6098">1</text></g><!--link Ticket to Payment--><g id="link_Ticket_Payment"><path d="M818.5,377.14 C818.5,399.13 818.5,432.01 818.5,453.97 " fill="none" id="Ticket-Payment" style="stroke:#181818;stroke-width:1;"/><text fill="#000000" font-family="sans-serif" font-size="13" lengthAdjust="spacing" textLength="23.0356" x="792.513" y="397.2936">0..*</text><text fill="#000000" font-family="sans-serif" font-size="13" lengthAdjust="spacing" textLength="8.271" x="809.52" y="442.9363">1</text></g><!--link Ticket to Seat--><g id="link_Ticket_Seat"><path d="M839.6,372.15 C868.35,396.87 919.21,440.62 945.2,462.98 " fill="none" id="Ticket-Seat" style="stroke:#181818;stroke-width:1;"/><text fill="#000000" font-family="sans-serif" font-size="13" lengthAdjust="spacing" textLength="8.271" x="847.9015" y="373.0488">1</text><text fill="#000000" font-family="sans-serif" font-size="13" lengthAdjust="spacing" textLength="8.271" x="929.2602" y="472.0536">1</text></g><!--link Route to Train--><g id="link_Route_Train"><path d="M884.73,149.55 C852.32,170.7 790.27,211.18 759.59,231.2 " fill="none" id="Route-Train" style="stroke:#181818;stroke-width:1;"/><text fill="#000000" font-family="sans-serif" font-size="13" lengthAdjust="spacing" textLength="23.0356" x="853.8358" y="148.3153">0..*</text><text fill="#000000" font-family="sans-serif" font-size="13" lengthAdjust="spacing" textLength="8.271" x="767.0103" y="221.5153">1</text></g><!--link Route to Station--><g id="link_Route_Station"><path d="M926.23,143.69 C981.84,164.34 1130.26,219.44 1131.5,220 C1137.37,222.64 1143.54,225.75 1149.32,228.8 " fill="none" id="Route-Station" style="stroke:#181818;stroke-width:1;"/><text fill="#000000" font-family="sans-serif" font-size="13" lengthAdjust="spacing" textLength="23.0356" x="934.4591" y="141.0408">0..*</text><text fill="#000000" font-family="sans-serif" font-size="13" lengthAdjust="spacing" textLength="8.271" x="1133.1832" y="219.4594">1</text></g><!--link Train to Car--><g id="link_Train_Car"><path d="M759.77,258.12 C789.14,279.21 846.4,320.33 874.36,340.41 " fill="none" id="Train-Car" style="stroke:#181818;stroke-width:1;"/><text fill="#000000" font-family="sans-serif" font-size="13" lengthAdjust="spacing" textLength="8.271" x="767.2499" y="257.3526">1</text><text fill="#000000" font-family="sans-serif" font-size="13" lengthAdjust="spacing" textLength="23.0356" x="847.804" y="328.8151">0..*</text></g><!--link Car to Seat--><g id="link_Car_Seat"><path d="M903.85,377.14 C916.55,399.13 935.53,432.01 948.21,453.97 " fill="none" id="Car-Seat" style="stroke:#181818;stroke-width:1;"/><text fill="#000000" font-family="sans-serif" font-size="13" lengthAdjust="spacing" textLength="8.271" x="898.2807" y="397.2936">1</text><text fill="#000000" font-family="sans-serif" font-size="13" lengthAdjust="spacing" textLength="23.0356" x="918.8621" y="442.9363">0..*</text></g><!--link User.first_name to User--><g id="link_User.first_name_User"><path d="M210.47,377.14 C272.88,405.46 364.1727,446.9009 403.4827,464.7409 " fill="none" id="User.first_name-to-User" style="stroke:#181818;stroke-width:1;"/><polygon fill="#181818" points="414.41,469.7,410.5994,463.578,403.4827,464.7409,407.2933,470.8629,414.41,469.7" style="stroke:#181818;stroke-width:1;"/></g><!--link User.last_name to User--><g id="link_User.last_name_User"><path d="M327.39,377.14 C352.82,401.77 383.7606,431.731 405.7506,453.031 " fill="none" id="User.last_name-to-User" style="stroke:#181818;stroke-width:1;"/><polygon fill="#181818" points="414.37,461.38,412.8433,454.3324,405.7506,453.031,407.2773,460.0787,414.37,461.38" style="stroke:#181818;stroke-width:1;"/></g><!--link User.email to User--><g id="link_User.email_User"><path d="M430.5,377.14 C430.5,399.13 430.5,420.01 430.5,441.97 " fill="none" id="User.email-to-User" style="stroke:#181818;stroke-width:1;"/><polygon fill="#181818" points="430.5,453.97,434.5,447.97,430.5,441.97,426.5,447.97,430.5,453.97" style="stroke:#181818;stroke-width:1;"/><text fill="#000000" font-family="sans-serif" font-size="13" lengthAdjust="spacing" textLength="52.6855" x="431.5" y="420.0669">optional</text></g><!--link User.phone to User--><g id="link_User.phone_User"><path d="M528.68,377.11 C519.12,391.28 505.98,409.43 492.5,424 C478.27,439.38 469.2399,447.3197 456.1599,457.4997 " fill="none" id="User.phone-to-User" style="stroke:#181818;stroke-width:1;"/><polygon fill="#181818" points="446.69,464.87,453.8817,464.3415,456.1599,457.4997,448.9682,458.0282,446.69,464.87" style="stroke:#181818;stroke-width:1;"/></g><!--link User.password_hash to User--><g id="link_User.password_hash_User"><path d="M641.6,377.14 C582.17,405.25 495.9367,446.0369 457.6267,464.1669 " fill="none" id="User.password_hash-to-User" style="stroke:#181818;stroke-width:1;"/><polygon fill="#181818" points="446.78,469.3,453.9144,470.349,457.6267,464.1669,450.4923,463.1179,446.78,469.3" style="stroke:#181818;stroke-width:1;"/></g><!--link User.role to User--><g id="link_User.role_User"><path d="M69.08,369.7 C74.81,372.3 80.79,374.84 86.5,377 C209.86,423.56 353.1403,458.826 402.7603,470.526 " fill="none" id="User.role-to-User" style="stroke:#181818;stroke-width:1;"/><polygon fill="#181818" points="414.44,473.28,409.5181,468.0098,402.7603,470.526,407.6822,475.7962,414.44,473.28" style="stroke:#181818;stroke-width:1;"/></g><!--link Train.number to Train--><g id="link_Train.number_Train"><path d="M663.2,159.22 C681.12,178.39 698.0879,196.5414 714.9979,214.6414 " fill="none" id="Train.number-to-Train" style="stroke:#181818;stroke-width:1;"/><polygon fill="#181818" points="723.19,223.41,722.0168,216.295,714.9979,214.6414,716.1711,221.7564,723.19,223.41" style="stroke:#181818;stroke-width:1;"/></g><!--link Train.name to Train--><g id="link_Train.name_Train"><path d="M759.51,159.22 C755.65,177.16 752.8642,190.1585 749.0042,208.0985 " fill="none" id="Train.name-to-Train" style="stroke:#181818;stroke-width:1;"/><polygon fill="#181818" points="746.48,219.83,751.6526,214.8056,749.0042,208.0985,743.8316,213.1228,746.48,219.83" style="stroke:#181818;stroke-width:1;"/></g><!--link Station.name to Station--><g id="link_Station.name_Station"><path d="M1174.5,159.22 C1174.5,177.16 1174.5,189.89 1174.5,207.83 " fill="none" id="Station.name-to-Station" style="stroke:#181818;stroke-width:1;"/><polygon fill="#181818" points="1174.5,219.83,1178.5,213.83,1174.5,207.83,1170.5,213.83,1174.5,219.83" style="stroke:#181818;stroke-width:1;"/></g><!--link Station.city to Station--><g id="link_Station.city_Station"><path d="M1270.03,159.22 C1249.14,177.53 1229.2328,194.9986 1208.6928,213.0086 " fill="none" id="Station.city-to-Station" style="stroke:#181818;stroke-width:1;"/><polygon fill="#181818" points="1199.67,220.92,1206.8185,219.9719,1208.6928,213.0086,1201.5442,213.9567,1199.67,220.92" style="stroke:#181818;stroke-width:1;"/></g><!--link Station.country to Station--><g id="link_Station.country_Station"><path d="M1068.01,159.22 C1092.23,178.27 1116.7279,197.5514 1139.7279,215.6414 " fill="none" id="Station.country-to-Station" style="stroke:#181818;stroke-width:1;"/><polygon fill="#181818" points="1149.16,223.06,1146.9168,216.2067,1139.7279,215.6414,1141.9711,222.4948,1149.16,223.06" style="stroke:#181818;stroke-width:1;"/></g><!--link Route.arrival_time to Route--><g id="link_Route.arrival_time_Route"><path d="M766.91,50.22 C803.1,72.1 845.7006,97.8521 874.5506,115.2921 " fill="none" id="Route.arrival_time-to-Route" style="stroke:#181818;stroke-width:1;"/><polygon fill="#181818" points="884.82,121.5,881.7546,114.9729,874.5506,115.2921,877.616,121.8192,884.82,121.5" style="stroke:#181818;stroke-width:1;"/></g><!--link Route.departure_time to Route--><g id="link_Route.departure_time_Route"><path d="M905.5,50.22 C905.5,68.16 905.5,80.89 905.5,98.83 " fill="none" id="Route.departure_time-to-Route" style="stroke:#181818;stroke-width:1;"/><polygon fill="#181818" points="905.5,110.83,909.5,104.83,905.5,98.83,901.5,104.83,905.5,110.83" style="stroke:#181818;stroke-width:1;"/></g><!--link Route.stop_order to Route--><g id="link_Route.stop_order_Route"><path d="M1040.96,50.22 C1005.78,71.98 964.6963,97.3887 936.3963,114.8887 " fill="none" id="Route.stop_order-to-Route" style="stroke:#181818;stroke-width:1;"/><polygon fill="#181818" points="926.19,121.2,933.3969,121.4464,936.3963,114.8887,929.1894,114.6423,926.19,121.2" style="stroke:#181818;stroke-width:1;"/></g><!--link Car.number to Car--><g id="link_Car.number_Car"><path d="M848.22,268.22 C857.27,286.16 864.3405,300.1785 873.4005,318.1185 " fill="none" id="Car.number-to-Car" style="stroke:#181818;stroke-width:1;"/><polygon fill="#181818" points="878.81,328.83,879.6758,321.6711,873.4005,318.1185,872.5347,325.2774,878.81,328.83" style="stroke:#181818;stroke-width:1;"/></g><!--link Car.type to Car--><g id="link_Car.type_Car"><path d="M932,268.22 C923.11,286.16 916.1834,300.1354 907.3034,318.0754 " fill="none" id="Car.type-to-Car" style="stroke:#181818;stroke-width:1;"/><polygon fill="#181818" points="901.98,328.83,908.2266,325.2271,907.3034,318.0754,901.0568,321.6782,901.98,328.83" style="stroke:#181818;stroke-width:1;"/></g><!--link Car.total_seats to Car--><g id="link_Car.total_seats_Car"><path d="M1022.83,268.08 C995.23,284.71 957.33,307.84 924.5,329 C918.63,332.78 922.1971,330.2981 916.5871,334.1081 " fill="none" id="Car.total_seats-to-Car" style="stroke:#181818;stroke-width:1;"/><polygon fill="#181818" points="906.66,340.85,913.8708,340.7881,916.5871,334.1081,909.3762,334.17,906.66,340.85" style="stroke:#181818;stroke-width:1;"/></g><!--link Seat.number to Seat--><g id="link_Seat.number_Seat"><path d="M982.61,377.14 C977.96,399.13 973.4907,420.2692 968.8507,442.2292 " fill="none" id="Seat.number-to-Seat" style="stroke:#181818;stroke-width:1;"/><polygon fill="#181818" points="966.37,453.97,971.524,448.9265,968.8507,442.2292,963.6968,447.2727,966.37,453.97" style="stroke:#181818;stroke-width:1;"/></g><!--link Seat.type to Seat--><g id="link_Seat.type_Seat"><path d="M1075.17,377.14 C1046.49,402.33 1010.5552,433.9 986.6852,454.87 " fill="none" id="Seat.type-to-Seat" style="stroke:#181818;stroke-width:1;"/><polygon fill="#181818" points="977.67,462.79,984.8176,461.8351,986.6852,454.87,979.5376,455.8249,977.67,462.79" style="stroke:#181818;stroke-width:1;"/></g><!--SRC=[RPB9ReCm48RlynGMkKKAQgwzzWMgBcSqIQQDLR2HFRJYxUi5y19kyFtUPkOZnP9dyMd9YCEt8L904NqObAfYxumiTKtVzCGa3fT-eXMzO7tSEo7NDyZh3zNm5UV1VQvqnVw1xPSqbZk50nMunprA0yg-8EDTgtBDYDR-QNFhxcZlHM9qJr2qebNJS25JiUpMI5WpzjqLZOMgQyNYbLtTpmFJas8pGz7V5esHl-vebkcKcDneHCEJePtCiXuxLw5xU3QRgXPFU1wf-0zrM3Urh13tLsqDAEo5PPpDKziU6t4wYURSX6Rk9ykWj_2y9VvCW6XLkIUqU3TPUkTU4RHTJujhN3tWZInfl0Ogizo2OtnrwLR5WrqR4yz2Z_v-x26fLcqfPAiohrj2a0iNS2myEPT1oFKAVEr5xjX-44KhCdYqBUG1mvvm3t5oBeiWQHVeCfFWJWcIU1k7pBpuMZ-xpRqD_GC0]--></g></svg>