<?xml version="1.0" encoding="UTF-8" standalone="no"?><svg xmlns="http://www.w3.org/2000/svg" xmlns:xlink="http://www.w3.org/1999/xlink" contentScriptType="application/ecmascript" contentStyleType="text/css" height="521px" preserveAspectRatio="none" style="width:1520px;height:521px;" version="1.1" viewBox="0 0 1520 521" width="1520px" zoomAndPan="magnify"><defs><filter height="300%" id="f1drvty6reozzl" width="300%" x="-1" y="-1"><feGaussianBlur result="blurOut" stdDeviation="2.0"/><feColorMatrix in="blurOut" result="blurOut2" type="matrix" values="0 0 0 0 0 0 0 0 0 0 0 0 0 0 0 0 0 0 .4 0"/><feOffset dx="4.0" dy="4.0" in="blurOut2" result="blurOut3"/><feBlend in="SourceGraphic" in2="blurOut3" mode="normal"/></filter></defs><g><!--MD5=[3fd616f346a44cd59a91eb10b19e157c]
class User--><rect fill="#008000" filter="url(#f1drvty6reozzl)" height="48" id="User" style="stroke: #A80036; stroke-width: 1.5;" width="59" x="452.5" y="462"/><rect fill="#008000" height="32" style="stroke: #A80036; stroke-width: 1.5;" width="59" x="452.5" y="462"/><ellipse cx="467.5" cy="478" fill="#ADD1B2" rx="11" ry="11" style="stroke: #A80036; stroke-width: 1.0;"/><path d="M471.6094,484 L463.8906,484 L463.8906,471.6094 L471.6094,471.6094 L471.6094,473.7656 L466.3438,473.7656 L466.3438,476.4375 L471.1094,476.4375 L471.1094,478.5938 L466.3438,478.5938 L466.3438,481.8438 L471.6094,481.8438 L471.6094,484 Z "/><text fill="#000000" font-family="sans-serif" font-size="12" lengthAdjust="spacingAndGlyphs" textLength="27" x="481.5" y="482.656">User</text><line style="stroke: #A80036; stroke-width: 1.5;" x1="453.5" x2="510.5" y1="494" y2="494"/><line style="stroke: #A80036; stroke-width: 1.5;" x1="453.5" x2="510.5" y1="502" y2="502"/><!--MD5=[ff74e0f0bb3fa51f8c743cb54bdb5b13]
class Train--><rect fill="#008000" filter="url(#f1drvty6reozzl)" height="48" id="Train" style="stroke: #A80036; stroke-width: 1.5;" width="61" x="798.5" y="226"/><rect fill="#008000" height="32" style="stroke: #A80036; stroke-width: 1.5;" width="61" x="798.5" y="226"/><ellipse cx="813.5" cy="242" fill="#ADD1B2" rx="11" ry="11" style="stroke: #A80036; stroke-width: 1.0;"/><path d="M817.6094,248 L809.8906,248 L809.8906,235.6094 L817.6094,235.6094 L817.6094,237.7656 L812.3438,237.7656 L812.3438,240.4375 L817.1094,240.4375 L817.1094,242.5938 L812.3438,242.5938 L812.3438,245.8438 L817.6094,245.8438 L817.6094,248 Z "/><text fill="#000000" font-family="sans-serif" font-size="12" lengthAdjust="spacingAndGlyphs" textLength="29" x="827.5" y="246.656">Train</text><line style="stroke: #A80036; stroke-width: 1.5;" x1="799.5" x2="858.5" y1="258" y2="258"/><line style="stroke: #A80036; stroke-width: 1.5;" x1="799.5" x2="858.5" y1="266" y2="266"/><!--MD5=[32f8e77670dc7b12ba11221465fb86a4]
class Station--><rect fill="#008000" filter="url(#f1drvty6reozzl)" height="48" id="Station" style="stroke: #A80036; stroke-width: 1.5;" width="71" x="1292.5" y="226"/><rect fill="#008000" height="32" style="stroke: #A80036; stroke-width: 1.5;" width="71" x="1292.5" y="226"/><ellipse cx="1307.5" cy="242" fill="#ADD1B2" rx="11" ry="11" style="stroke: #A80036; stroke-width: 1.0;"/><path d="M1311.6094,248 L1303.8906,248 L1303.8906,235.6094 L1311.6094,235.6094 L1311.6094,237.7656 L1306.3438,237.7656 L1306.3438,240.4375 L1311.1094,240.4375 L1311.1094,242.5938 L1306.3438,242.5938 L1306.3438,245.8438 L1311.6094,245.8438 L1311.6094,248 Z "/><text fill="#000000" font-family="sans-serif" font-size="12" lengthAdjust="spacingAndGlyphs" textLength="39" x="1321.5" y="246.656">Station</text><line style="stroke: #A80036; stroke-width: 1.5;" x1="1293.5" x2="1362.5" y1="258" y2="258"/><line style="stroke: #A80036; stroke-width: 1.5;" x1="1293.5" x2="1362.5" y1="266" y2="266"/><!--MD5=[fc92a9f5bb5fae84dd7fa4034e6b4444]
class Route--><rect fill="#0000FF" filter="url(#f1drvty6reozzl)" height="48" id="Route" style="stroke: #A80036; stroke-width: 1.5;" width="64" x="997" y="117"/><rect fill="#0000FF" height="32" style="stroke: #A80036; stroke-width: 1.5;" width="64" x="997" y="117"/><ellipse cx="1012" cy="133" fill="#ADD1B2" rx="11" ry="11" style="stroke: #A80036; stroke-width: 1.0;"/><path d="M1016.1094,139 L1008.3906,139 L1008.3906,126.6094 L1016.1094,126.6094 L1016.1094,128.7656 L1010.8438,128.7656 L1010.8438,131.4375 L1015.6094,131.4375 L1015.6094,133.5938 L1010.8438,133.5938 L1010.8438,136.8438 L1016.1094,136.8438 L1016.1094,139 Z "/><text fill="#000000" font-family="sans-serif" font-size="12" lengthAdjust="spacingAndGlyphs" textLength="32" x="1026" y="137.656">Route</text><line style="stroke: #A80036; stroke-width: 1.5;" x1="998" x2="1060" y1="149" y2="149"/><line style="stroke: #A80036; stroke-width: 1.5;" x1="998" x2="1060" y1="157" y2="157"/><!--MD5=[3f0ef310aaa84a542276992c5216544d]
class Car--><rect fill="#008000" filter="url(#f1drvty6reozzl)" height="48" id="Car" style="stroke: #A80036; stroke-width: 1.5;" width="52" x="980" y="335"/><rect fill="#008000" height="32" style="stroke: #A80036; stroke-width: 1.5;" width="52" x="980" y="335"/><ellipse cx="995" cy="351" fill="#ADD1B2" rx="11" ry="11" style="stroke: #A80036; stroke-width: 1.0;"/><path d="M999.1094,357 L991.3906,357 L991.3906,344.6094 L999.1094,344.6094 L999.1094,346.7656 L993.8438,346.7656 L993.8438,349.4375 L998.6094,349.4375 L998.6094,351.5938 L993.8438,351.5938 L993.8438,354.8438 L999.1094,354.8438 L999.1094,357 Z "/><text fill="#000000" font-family="sans-serif" font-size="12" lengthAdjust="spacingAndGlyphs" textLength="20" x="1009" y="355.656">Car</text><line style="stroke: #A80036; stroke-width: 1.5;" x1="981" x2="1031" y1="367" y2="367"/><line style="stroke: #A80036; stroke-width: 1.5;" x1="981" x2="1031" y1="375" y2="375"/><!--MD5=[3640288bb00e105a19a150bd568b9756]
class Seat--><rect fill="#008000" filter="url(#f1drvty6reozzl)" height="48" id="Seat" style="stroke: #A80036; stroke-width: 1.5;" width="57" x="1059.5" y="462"/><rect fill="#008000" height="32" style="stroke: #A80036; stroke-width: 1.5;" width="57" x="1059.5" y="462"/><ellipse cx="1074.5" cy="478" fill="#ADD1B2" rx="11" ry="11" style="stroke: #A80036; stroke-width: 1.0;"/><path d="M1078.6094,484 L1070.8906,484 L1070.8906,471.6094 L1078.6094,471.6094 L1078.6094,473.7656 L1073.3438,473.7656 L1073.3438,476.4375 L1078.1094,476.4375 L1078.1094,478.5938 L1073.3438,478.5938 L1073.3438,481.8438 L1078.6094,481.8438 L1078.6094,484 Z "/><text fill="#000000" font-family="sans-serif" font-size="12" lengthAdjust="spacingAndGlyphs" textLength="25" x="1088.5" y="482.656">Seat</text><line style="stroke: #A80036; stroke-width: 1.5;" x1="1060.5" x2="1115.5" y1="494" y2="494"/><line style="stroke: #A80036; stroke-width: 1.5;" x1="1060.5" x2="1115.5" y1="502" y2="502"/><!--MD5=[ac6bea31e13c94c7baa9ad18feb7405e]
class Ticket--><rect fill="#008000" filter="url(#f1drvty6reozzl)" height="48" id="Ticket" style="stroke: #A80036; stroke-width: 1.5;" width="65" x="879.5" y="335"/><rect fill="#008000" height="32" style="stroke: #A80036; stroke-width: 1.5;" width="65" x="879.5" y="335"/><ellipse cx="894.5" cy="351" fill="#ADD1B2" rx="11" ry="11" style="stroke: #A80036; stroke-width: 1.0;"/><path d="M898.6094,357 L890.8906,357 L890.8906,344.6094 L898.6094,344.6094 L898.6094,346.7656 L893.3438,346.7656 L893.3438,349.4375 L898.1094,349.4375 L898.1094,351.5938 L893.3438,351.5938 L893.3438,354.8438 L898.6094,354.8438 L898.6094,357 Z "/><text fill="#000000" font-family="sans-serif" font-size="12" lengthAdjust="spacingAndGlyphs" textLength="33" x="908.5" y="355.656">Ticket</text><line style="stroke: #A80036; stroke-width: 1.5;" x1="880.5" x2="943.5" y1="367" y2="367"/><line style="stroke: #A80036; stroke-width: 1.5;" x1="880.5" x2="943.5" y1="375" y2="375"/><!--MD5=[764fca796ce7f635542948d8fc39db5e]
class Payment--><rect fill="#008000" filter="url(#f1drvty6reozzl)" height="48" id="Payment" style="stroke: #A80036; stroke-width: 1.5;" width="81" x="871.5" y="462"/><rect fill="#008000" height="32" style="stroke: #A80036; stroke-width: 1.5;" width="81" x="871.5" y="462"/><ellipse cx="886.5" cy="478" fill="#ADD1B2" rx="11" ry="11" style="stroke: #A80036; stroke-width: 1.0;"/><path d="M890.6094,484 L882.8906,484 L882.8906,471.6094 L890.6094,471.6094 L890.6094,473.7656 L885.3438,473.7656 L885.3438,476.4375 L890.1094,476.4375 L890.1094,478.5938 L885.3438,478.5938 L885.3438,481.8438 L890.6094,481.8438 L890.6094,484 Z "/><text fill="#000000" font-family="sans-serif" font-size="12" lengthAdjust="spacingAndGlyphs" textLength="49" x="900.5" y="482.656">Payment</text><line style="stroke: #A80036; stroke-width: 1.5;" x1="872.5" x2="951.5" y1="494" y2="494"/><line style="stroke: #A80036; stroke-width: 1.5;" x1="872.5" x2="951.5" y1="502" y2="502"/><!--MD5=[7eb083d85d3efcff608f2c1d87e76d5c]
class User.first_name--><rect fill="#FEFECE" filter="url(#f1drvty6reozzl)" height="48" id="User.first_name" style="stroke: #A80036; stroke-width: 1.5;" width="121" x="125.5" y="335"/><ellipse cx="140.5" cy="351" fill="#ADD1B2" rx="11" ry="11" style="stroke: #A80036; stroke-width: 1.0;"/><path d="M144.6094,357 L136.8906,357 L136.8906,344.6094 L144.6094,344.6094 L144.6094,346.7656 L139.3438,346.7656 L139.3438,349.4375 L144.1094,349.4375 L144.1094,351.5938 L139.3438,351.5938 L139.3438,354.8438 L144.6094,354.8438 L144.6094,357 Z "/><text fill="#000000" font-family="sans-serif" font-size="12" lengthAdjust="spacingAndGlyphs" textLength="89" x="154.5" y="355.656">User.first_name</text><line style="stroke: #A80036; stroke-width: 1.5;" x1="126.5" x2="245.5" y1="367" y2="367"/><line style="stroke: #A80036; stroke-width: 1.5;" x1="126.5" x2="245.5" y1="375" y2="375"/><!--MD5=[3eb8aea0b6057617d3b5e15d3b8e2fe9]
class User.last_name--><rect fill="#FEFECE" filter="url(#f1drvty6reozzl)" height="48" id="User.last_name" style="stroke: #A80036; stroke-width: 1.5;" width="119" x="281.5" y="335"/><ellipse cx="296.5" cy="351" fill="#ADD1B2" rx="11" ry="11" style="stroke: #A80036; stroke-width: 1.0;"/><path d="M300.6094,357 L292.8906,357 L292.8906,344.6094 L300.6094,344.6094 L300.6094,346.7656 L295.3438,346.7656 L295.3438,349.4375 L300.1094,349.4375 L300.1094,351.5938 L295.3438,351.5938 L295.3438,354.8438 L300.6094,354.8438 L300.6094,357 Z "/><text fill="#000000" font-family="sans-serif" font-size="12" lengthAdjust="spacingAndGlyphs" textLength="87" x="310.5" y="355.656">User.last_name</text><line style="stroke: #A80036; stroke-width: 1.5;" x1="282.5" x2="399.5" y1="367" y2="367"/><line style="stroke: #A80036; stroke-width: 1.5;" x1="282.5" x2="399.5" y1="375" y2="375"/><!--MD5=[4e70b5e1b553eb40b9b3c38d64e294bd]
class User.email--><rect fill="#FEFECE" filter="url(#f1drvty6reozzl)" height="48" id="User.email" style="stroke: #A80036; stroke-width: 1.5;" width="93" x="435.5" y="335"/><ellipse cx="450.5" cy="351" fill="#ADD1B2" rx="11" ry="11" style="stroke: #A80036; stroke-width: 1.0;"/><path d="M454.6094,357 L446.8906,357 L446.8906,344.6094 L454.6094,344.6094 L454.6094,346.7656 L449.3438,346.7656 L449.3438,349.4375 L454.1094,349.4375 L454.1094,351.5938 L449.3438,351.5938 L449.3438,354.8438 L454.6094,354.8438 L454.6094,357 Z "/><text fill="#000000" font-family="sans-serif" font-size="12" lengthAdjust="spacingAndGlyphs" textLength="61" x="464.5" y="355.656">User.email</text><line style="stroke: #A80036; stroke-width: 1.5;" x1="436.5" x2="527.5" y1="367" y2="367"/><line style="stroke: #A80036; stroke-width: 1.5;" x1="436.5" x2="527.5" y1="375" y2="375"/><!--MD5=[8686fe486e5392f35c09b727ca677c56]
class User.phone--><rect fill="#FEFECE" filter="url(#f1drvty6reozzl)" height="48" id="User.phone" style="stroke: #A80036; stroke-width: 1.5;" width="97" x="563.5" y="335"/><ellipse cx="578.5" cy="351" fill="#ADD1B2" rx="11" ry="11" style="stroke: #A80036; stroke-width: 1.0;"/><path d="M582.6094,357 L574.8906,357 L574.8906,344.6094 L582.6094,344.6094 L582.6094,346.7656 L577.3438,346.7656 L577.3438,349.4375 L582.1094,349.4375 L582.1094,351.5938 L577.3438,351.5938 L577.3438,354.8438 L582.6094,354.8438 L582.6094,357 Z "/><text fill="#000000" font-family="sans-serif" font-size="12" lengthAdjust="spacingAndGlyphs" textLength="65" x="592.5" y="355.656">User.phone</text><line style="stroke: #A80036; stroke-width: 1.5;" x1="564.5" x2="659.5" y1="367" y2="367"/><line style="stroke: #A80036; stroke-width: 1.5;" x1="564.5" x2="659.5" y1="375" y2="375"/><!--MD5=[382d1f0626b2bb154ba222262a622a3a]
class User.password_hash--><rect fill="#FEFECE" filter="url(#f1drvty6reozzl)" height="48" id="User.password_hash" style="stroke: #A80036; stroke-width: 1.5;" width="148" x="696" y="335"/><ellipse cx="711" cy="351" fill="#ADD1B2" rx="11" ry="11" style="stroke: #A80036; stroke-width: 1.0;"/><path d="M715.1094,357 L707.3906,357 L707.3906,344.6094 L715.1094,344.6094 L715.1094,346.7656 L709.8438,346.7656 L709.8438,349.4375 L714.6094,349.4375 L714.6094,351.5938 L709.8438,351.5938 L709.8438,354.8438 L715.1094,354.8438 L715.1094,357 Z "/><text fill="#000000" font-family="sans-serif" font-size="12" lengthAdjust="spacingAndGlyphs" textLength="116" x="725" y="355.656">User.password_hash</text><line style="stroke: #A80036; stroke-width: 1.5;" x1="697" x2="843" y1="367" y2="367"/><line style="stroke: #A80036; stroke-width: 1.5;" x1="697" x2="843" y1="375" y2="375"/><!--MD5=[33812bd6456cbf6fbae8c3c0d88c83b7]
class User.role--><rect fill="#FEFECE" filter="url(#f1drvty6reozzl)" height="48" id="User.role" style="stroke: #A80036; stroke-width: 1.5;" width="84" x="6" y="335"/><ellipse cx="21" cy="351" fill="#ADD1B2" rx="11" ry="11" style="stroke: #A80036; stroke-width: 1.0;"/><path d="M25.1094,357 L17.3906,357 L17.3906,344.6094 L25.1094,344.6094 L25.1094,346.7656 L19.8438,346.7656 L19.8438,349.4375 L24.6094,349.4375 L24.6094,351.5938 L19.8438,351.5938 L19.8438,354.8438 L25.1094,354.8438 L25.1094,357 Z "/><text fill="#000000" font-family="sans-serif" font-size="12" lengthAdjust="spacingAndGlyphs" textLength="52" x="35" y="355.656">User.role</text><line style="stroke: #A80036; stroke-width: 1.5;" x1="7" x2="89" y1="367" y2="367"/><line style="stroke: #A80036; stroke-width: 1.5;" x1="7" x2="89" y1="375" y2="375"/><!--MD5=[fbe2b43f8d1765f4b357892e34ee6fb0]
class Train.number--><rect fill="#FEFECE" filter="url(#f1drvty6reozzl)" height="48" id="Train.number" style="stroke: #A80036; stroke-width: 1.5;" width="108" x="667" y="117"/><ellipse cx="682" cy="133" fill="#ADD1B2" rx="11" ry="11" style="stroke: #A80036; stroke-width: 1.0;"/><path d="M686.1094,139 L678.3906,139 L678.3906,126.6094 L686.1094,126.6094 L686.1094,128.7656 L680.8438,128.7656 L680.8438,131.4375 L685.6094,131.4375 L685.6094,133.5938 L680.8438,133.5938 L680.8438,136.8438 L686.1094,136.8438 L686.1094,139 Z "/><text fill="#000000" font-family="sans-serif" font-size="12" lengthAdjust="spacingAndGlyphs" textLength="76" x="696" y="137.656">Train.number</text><line style="stroke: #A80036; stroke-width: 1.5;" x1="668" x2="774" y1="149" y2="149"/><line style="stroke: #A80036; stroke-width: 1.5;" x1="668" x2="774" y1="157" y2="157"/><!--MD5=[664c451e5916bfe0f650b81405b89469]
class Train.name--><rect fill="#FEFECE" filter="url(#f1drvty6reozzl)" height="48" id="Train.name" style="stroke: #A80036; stroke-width: 1.5;" width="96" x="810" y="117"/><ellipse cx="825" cy="133" fill="#ADD1B2" rx="11" ry="11" style="stroke: #A80036; stroke-width: 1.0;"/><path d="M829.1094,139 L821.3906,139 L821.3906,126.6094 L829.1094,126.6094 L829.1094,128.7656 L823.8438,128.7656 L823.8438,131.4375 L828.6094,131.4375 L828.6094,133.5938 L823.8438,133.5938 L823.8438,136.8438 L829.1094,136.8438 L829.1094,139 Z "/><text fill="#000000" font-family="sans-serif" font-size="12" lengthAdjust="spacingAndGlyphs" textLength="64" x="839" y="137.656">Train.name</text><line style="stroke: #A80036; stroke-width: 1.5;" x1="811" x2="905" y1="149" y2="149"/><line style="stroke: #A80036; stroke-width: 1.5;" x1="811" x2="905" y1="157" y2="157"/><!--MD5=[c84fbdc0f0151458a271782a12c8d5b2]
class Train.total_cars--><rect fill="#FEFECE" filter="url(#f1drvty6reozzl)" height="48" id="Train.total_cars" style="stroke: #A80036; stroke-width: 1.5;" width="118" x="1303" y="8"/><ellipse cx="1318" cy="24" fill="#ADD1B2" rx="11" ry="11" style="stroke: #A80036; stroke-width: 1.0;"/><path d="M1322.1094,30 L1314.3906,30 L1314.3906,17.6094 L1322.1094,17.6094 L1322.1094,19.7656 L1316.8438,19.7656 L1316.8438,22.4375 L1321.6094,22.4375 L1321.6094,24.5938 L1316.8438,24.5938 L1316.8438,27.8438 L1322.1094,27.8438 L1322.1094,30 Z "/><text fill="#000000" font-family="sans-serif" font-size="12" lengthAdjust="spacingAndGlyphs" textLength="86" x="1332" y="28.656">Train.total_cars</text><line style="stroke: #A80036; stroke-width: 1.5;" x1="1304" x2="1420" y1="40" y2="40"/><line style="stroke: #A80036; stroke-width: 1.5;" x1="1304" x2="1420" y1="48" y2="48"/><!--MD5=[a622c9094cddcbe9201abbd7e666d7d9]
class Station.name--><rect fill="#FEFECE" filter="url(#f1drvty6reozzl)" height="48" id="Station.name" style="stroke: #A80036; stroke-width: 1.5;" width="106" x="1275" y="117"/><ellipse cx="1290" cy="133" fill="#ADD1B2" rx="11" ry="11" style="stroke: #A80036; stroke-width: 1.0;"/><path d="M1294.1094,139 L1286.3906,139 L1286.3906,126.6094 L1294.1094,126.6094 L1294.1094,128.7656 L1288.8438,128.7656 L1288.8438,131.4375 L1293.6094,131.4375 L1293.6094,133.5938 L1288.8438,133.5938 L1288.8438,136.8438 L1294.1094,136.8438 L1294.1094,139 Z "/><text fill="#000000" font-family="sans-serif" font-size="12" lengthAdjust="spacingAndGlyphs" textLength="74" x="1304" y="137.656">Station.name</text><line style="stroke: #A80036; stroke-width: 1.5;" x1="1276" x2="1380" y1="149" y2="149"/><line style="stroke: #A80036; stroke-width: 1.5;" x1="1276" x2="1380" y1="157" y2="157"/><!--MD5=[8e716169b73cb403f03c315a9586d4bd]
class Station.city--><rect fill="#FEFECE" filter="url(#f1drvty6reozzl)" height="48" id="Station.city" style="stroke: #A80036; stroke-width: 1.5;" width="93" x="1416.5" y="117"/><ellipse cx="1431.5" cy="133" fill="#ADD1B2" rx="11" ry="11" style="stroke: #A80036; stroke-width: 1.0;"/><path d="M1435.6094,139 L1427.8906,139 L1427.8906,126.6094 L1435.6094,126.6094 L1435.6094,128.7656 L1430.3438,128.7656 L1430.3438,131.4375 L1435.1094,131.4375 L1435.1094,133.5938 L1430.3438,133.5938 L1430.3438,136.8438 L1435.6094,136.8438 L1435.6094,139 Z "/><text fill="#000000" font-family="sans-serif" font-size="12" lengthAdjust="spacingAndGlyphs" textLength="61" x="1445.5" y="137.656">Station.city</text><line style="stroke: #A80036; stroke-width: 1.5;" x1="1417.5" x2="1508.5" y1="149" y2="149"/><line style="stroke: #A80036; stroke-width: 1.5;" x1="1417.5" x2="1508.5" y1="157" y2="157"/><!--MD5=[2f225d9360a0d9a90d8d9e8cc831d1d9]
class Station.country--><rect fill="#FEFECE" filter="url(#f1drvty6reozzl)" height="48" id="Station.country" style="stroke: #A80036; stroke-width: 1.5;" width="116" x="1124" y="117"/><ellipse cx="1139" cy="133" fill="#ADD1B2" rx="11" ry="11" style="stroke: #A80036; stroke-width: 1.0;"/><path d="M1143.1094,139 L1135.3906,139 L1135.3906,126.6094 L1143.1094,126.6094 L1143.1094,128.7656 L1137.8438,128.7656 L1137.8438,131.4375 L1142.6094,131.4375 L1142.6094,133.5938 L1137.8438,133.5938 L1137.8438,136.8438 L1143.1094,136.8438 L1143.1094,139 Z "/><text fill="#000000" font-family="sans-serif" font-size="12" lengthAdjust="spacingAndGlyphs" textLength="84" x="1153" y="137.656">Station.country</text><line style="stroke: #A80036; stroke-width: 1.5;" x1="1125" x2="1239" y1="149" y2="149"/><line style="stroke: #A80036; stroke-width: 1.5;" x1="1125" x2="1239" y1="157" y2="157"/><!--MD5=[34a5a0acdb04def82058483177cb6284]
class Route.arrival_time--><rect fill="#FEFECE" filter="url(#f1drvty6reozzl)" height="48" id="Route.arrival_time" style="stroke: #A80036; stroke-width: 1.5;" width="133" x="784.5" y="8"/><ellipse cx="799.5" cy="24" fill="#ADD1B2" rx="11" ry="11" style="stroke: #A80036; stroke-width: 1.0;"/><path d="M803.6094,30 L795.8906,30 L795.8906,17.6094 L803.6094,17.6094 L803.6094,19.7656 L798.3438,19.7656 L798.3438,22.4375 L803.1094,22.4375 L803.1094,24.5938 L798.3438,24.5938 L798.3438,27.8438 L803.6094,27.8438 L803.6094,30 Z "/><text fill="#000000" font-family="sans-serif" font-size="12" lengthAdjust="spacingAndGlyphs" textLength="101" x="813.5" y="28.656">Route.arrival_time</text><line style="stroke: #A80036; stroke-width: 1.5;" x1="785.5" x2="916.5" y1="40" y2="40"/><line style="stroke: #A80036; stroke-width: 1.5;" x1="785.5" x2="916.5" y1="48" y2="48"/><!--MD5=[5925165e5254280f5aa780dea36b3f30]
class Route.departure_time--><rect fill="#FEFECE" filter="url(#f1drvty6reozzl)" height="48" id="Route.departure_time" style="stroke: #A80036; stroke-width: 1.5;" width="153" x="952.5" y="8"/><ellipse cx="967.5" cy="24" fill="#ADD1B2" rx="11" ry="11" style="stroke: #A80036; stroke-width: 1.0;"/><path d="M971.6094,30 L963.8906,30 L963.8906,17.6094 L971.6094,17.6094 L971.6094,19.7656 L966.3438,19.7656 L966.3438,22.4375 L971.1094,22.4375 L971.1094,24.5938 L966.3438,24.5938 L966.3438,27.8438 L971.6094,27.8438 L971.6094,30 Z "/><text fill="#000000" font-family="sans-serif" font-size="12" lengthAdjust="spacingAndGlyphs" textLength="121" x="981.5" y="28.656">Route.departure_time</text><line style="stroke: #A80036; stroke-width: 1.5;" x1="953.5" x2="1104.5" y1="40" y2="40"/><line style="stroke: #A80036; stroke-width: 1.5;" x1="953.5" x2="1104.5" y1="48" y2="48"/><!--MD5=[f841b423d3deb0b53e812270ac319863]
class Route.stop_order--><rect fill="#FEFECE" filter="url(#f1drvty6reozzl)" height="48" id="Route.stop_order" style="stroke: #A80036; stroke-width: 1.5;" width="127" x="1140.5" y="8"/><ellipse cx="1155.5" cy="24" fill="#ADD1B2" rx="11" ry="11" style="stroke: #A80036; stroke-width: 1.0;"/><path d="M1159.6094,30 L1151.8906,30 L1151.8906,17.6094 L1159.6094,17.6094 L1159.6094,19.7656 L1154.3438,19.7656 L1154.3438,22.4375 L1159.1094,22.4375 L1159.1094,24.5938 L1154.3438,24.5938 L1154.3438,27.8438 L1159.6094,27.8438 L1159.6094,30 Z "/><text fill="#000000" font-family="sans-serif" font-size="12" lengthAdjust="spacingAndGlyphs" textLength="95" x="1169.5" y="28.656">Route.stop_order</text><line style="stroke: #A80036; stroke-width: 1.5;" x1="1141.5" x2="1266.5" y1="40" y2="40"/><line style="stroke: #A80036; stroke-width: 1.5;" x1="1141.5" x2="1266.5" y1="48" y2="48"/><!--MD5=[2b99dd784bf4e9d91e7fd7e055a4dbbb]
class Car.number--><rect fill="#FEFECE" filter="url(#f1drvty6reozzl)" height="48" id="Car.number" style="stroke: #A80036; stroke-width: 1.5;" width="99" x="894.5" y="226"/><ellipse cx="909.5" cy="242" fill="#ADD1B2" rx="11" ry="11" style="stroke: #A80036; stroke-width: 1.0;"/><path d="M913.6094,248 L905.8906,248 L905.8906,235.6094 L913.6094,235.6094 L913.6094,237.7656 L908.3438,237.7656 L908.3438,240.4375 L913.1094,240.4375 L913.1094,242.5938 L908.3438,242.5938 L908.3438,245.8438 L913.6094,245.8438 L913.6094,248 Z "/><text fill="#000000" font-family="sans-serif" font-size="12" lengthAdjust="spacingAndGlyphs" textLength="67" x="923.5" y="246.656">Car.number</text><line style="stroke: #A80036; stroke-width: 1.5;" x1="895.5" x2="992.5" y1="258" y2="258"/><line style="stroke: #A80036; stroke-width: 1.5;" x1="895.5" x2="992.5" y1="266" y2="266"/><!--MD5=[2fabae47435e771ebb5a410853c38b28]
class Car.type--><rect fill="#FEFECE" filter="url(#f1drvty6reozzl)" height="48" id="Car.type" style="stroke: #A80036; stroke-width: 1.5;" width="79" x="1028.5" y="226"/><ellipse cx="1043.5" cy="242" fill="#ADD1B2" rx="11" ry="11" style="stroke: #A80036; stroke-width: 1.0;"/><path d="M1047.6094,248 L1039.8906,248 L1039.8906,235.6094 L1047.6094,235.6094 L1047.6094,237.7656 L1042.3438,237.7656 L1042.3438,240.4375 L1047.1094,240.4375 L1047.1094,242.5938 L1042.3438,242.5938 L1042.3438,245.8438 L1047.6094,245.8438 L1047.6094,248 Z "/><text fill="#000000" font-family="sans-serif" font-size="12" lengthAdjust="spacingAndGlyphs" textLength="47" x="1057.5" y="246.656">Car.type</text><line style="stroke: #A80036; stroke-width: 1.5;" x1="1029.5" x2="1106.5" y1="258" y2="258"/><line style="stroke: #A80036; stroke-width: 1.5;" x1="1029.5" x2="1106.5" y1="266" y2="266"/><!--MD5=[f1a18ed4e6d94daae671ef82148f8c48]
class Car.total_seats--><rect fill="#FEFECE" filter="url(#f1drvty6reozzl)" height="48" id="Car.total_seats" style="stroke: #A80036; stroke-width: 1.5;" width="115" x="1142.5" y="226"/><ellipse cx="1157.5" cy="242" fill="#ADD1B2" rx="11" ry="11" style="stroke: #A80036; stroke-width: 1.0;"/><path d="M1161.6094,248 L1153.8906,248 L1153.8906,235.6094 L1161.6094,235.6094 L1161.6094,237.7656 L1156.3438,237.7656 L1156.3438,240.4375 L1161.1094,240.4375 L1161.1094,242.5938 L1156.3438,242.5938 L1156.3438,245.8438 L1161.6094,245.8438 L1161.6094,248 Z "/><text fill="#000000" font-family="sans-serif" font-size="12" lengthAdjust="spacingAndGlyphs" textLength="83" x="1171.5" y="246.656">Car.total_seats</text><line style="stroke: #A80036; stroke-width: 1.5;" x1="1143.5" x2="1256.5" y1="258" y2="258"/><line style="stroke: #A80036; stroke-width: 1.5;" x1="1143.5" x2="1256.5" y1="266" y2="266"/><!--MD5=[1764c5b9492eb9e9322b331fcb4b515a]
class Seat.number--><rect fill="#FEFECE" filter="url(#f1drvty6reozzl)" height="48" id="Seat.number" style="stroke: #A80036; stroke-width: 1.5;" width="104" x="1067" y="335"/><ellipse cx="1082" cy="351" fill="#ADD1B2" rx="11" ry="11" style="stroke: #A80036; stroke-width: 1.0;"/><path d="M1086.1094,357 L1078.3906,357 L1078.3906,344.6094 L1086.1094,344.6094 L1086.1094,346.7656 L1080.8438,346.7656 L1080.8438,349.4375 L1085.6094,349.4375 L1085.6094,351.5938 L1080.8438,351.5938 L1080.8438,354.8438 L1086.1094,354.8438 L1086.1094,357 Z "/><text fill="#000000" font-family="sans-serif" font-size="12" lengthAdjust="spacingAndGlyphs" textLength="72" x="1096" y="355.656">Seat.number</text><line style="stroke: #A80036; stroke-width: 1.5;" x1="1068" x2="1170" y1="367" y2="367"/><line style="stroke: #A80036; stroke-width: 1.5;" x1="1068" x2="1170" y1="375" y2="375"/><!--MD5=[fa7826c72c17a204c3b5b030cdd551ab]
class Seat.type--><rect fill="#FEFECE" filter="url(#f1drvty6reozzl)" height="48" id="Seat.type" style="stroke: #A80036; stroke-width: 1.5;" width="84" x="1206" y="335"/><ellipse cx="1221" cy="351" fill="#ADD1B2" rx="11" ry="11" style="stroke: #A80036; stroke-width: 1.0;"/><path d="M1225.1094,357 L1217.3906,357 L1217.3906,344.6094 L1225.1094,344.6094 L1225.1094,346.7656 L1219.8438,346.7656 L1219.8438,349.4375 L1224.6094,349.4375 L1224.6094,351.5938 L1219.8438,351.5938 L1219.8438,354.8438 L1225.1094,354.8438 L1225.1094,357 Z "/><text fill="#000000" font-family="sans-serif" font-size="12" lengthAdjust="spacingAndGlyphs" textLength="52" x="1235" y="355.656">Seat.type</text><line style="stroke: #A80036; stroke-width: 1.5;" x1="1207" x2="1289" y1="367" y2="367"/><line style="stroke: #A80036; stroke-width: 1.5;" x1="1207" x2="1289" y1="375" y2="375"/><!--MD5=[f177e8a7d8f4445411d192bfe0ac99a9]
link Ticket to User--><path d="M879.25,376.02 C873.56,378.52 867.66,380.95 862,383 C734.48,429.07 576.25,465.02 511.6,478.85 " fill="none" id="Ticket-User" style="stroke: #A80036; stroke-width: 1.0;"/><text fill="#000000" font-family="sans-serif" font-size="13" lengthAdjust="spacingAndGlyphs" textLength="20" x="852.0818" y="374.6351">0..*</text><text fill="#000000" font-family="sans-serif" font-size="13" lengthAdjust="spacingAndGlyphs" textLength="7" x="519.6681" y="472.0184">1</text><!--MD5=[cfef979c6f91d33dbb8c991bd1a348f5]
link Ticket to Payment--><path d="M912,383.22 C912,405.67 912,439.5 912,461.91 " fill="none" id="Ticket-Payment" style="stroke: #A80036; stroke-width: 1.0;"/><text fill="#000000" font-family="sans-serif" font-size="13" lengthAdjust="spacingAndGlyphs" textLength="20" x="889.6875" y="404.7651">0..*</text><text fill="#000000" font-family="sans-serif" font-size="13" lengthAdjust="spacingAndGlyphs" textLength="7" x="904.0594" y="450.1433">1</text><!--MD5=[1b02a19573a7431ec5c21488b73eecc1]
link Ticket to Seat--><path d="M944.69,383.22 C977.6,406.59 1027.85,442.28 1059.27,464.6 " fill="none" id="Ticket-Seat" style="stroke: #A80036; stroke-width: 1.0;"/><text fill="#000000" font-family="sans-serif" font-size="13" lengthAdjust="spacingAndGlyphs" textLength="7" x="944.4402" y="404.7651">1</text><text fill="#000000" font-family="sans-serif" font-size="13" lengthAdjust="spacingAndGlyphs" textLength="7" x="1044.4139" y="475.4387">1</text><!--MD5=[6362e90de1ba9147e76312118470e89d]
link Route to Train--><path d="M996.87,159.19 C959.1,179.4 896.89,212.68 859.74,232.55 " fill="none" id="Route-Train" style="stroke: #A80036; stroke-width: 1.0;"/><text fill="#000000" font-family="sans-serif" font-size="13" lengthAdjust="spacingAndGlyphs" textLength="20" x="969.1023" y="157.9387">0..*</text><text fill="#000000" font-family="sans-serif" font-size="13" lengthAdjust="spacingAndGlyphs" textLength="7" x="867.658" y="223.5277">1</text><!--MD5=[6e959763c4ee4a61aa079f4ef917f63a]
link Route to Station--><path d="M1061.14,152.06 C1108.4,167.06 1199.24,196.68 1275,226 C1280.61,228.17 1286.51,230.59 1292.24,233.02 " fill="none" id="Route-Station" style="stroke: #A80036; stroke-width: 1.0;"/><text fill="#000000" font-family="sans-serif" font-size="13" lengthAdjust="spacingAndGlyphs" textLength="20" x="1068.9096" y="149.4941">0..*</text><text fill="#000000" font-family="sans-serif" font-size="13" lengthAdjust="spacingAndGlyphs" textLength="7" x="1277.5107" y="224.9701">1</text><!--MD5=[517d127dc81698daa0fb6981f788238c]
link Train to Car--><path d="M859.83,269.64 C893.8,290.18 947.86,322.85 979.84,342.19 " fill="none" id="Train-Car" style="stroke: #A80036; stroke-width: 1.0;"/><text fill="#000000" font-family="sans-serif" font-size="13" lengthAdjust="spacingAndGlyphs" textLength="7" x="867.3397" y="269.0511">1</text><text fill="#000000" font-family="sans-serif" font-size="13" lengthAdjust="spacingAndGlyphs" textLength="20" x="952.4761" y="333.295">0..*</text><!--MD5=[ec39eded56303e0fc6c2f79b2609842a]
link Car to Seat--><path d="M1021.23,383.22 C1035.96,405.67 1058.15,439.5 1072.85,461.91 " fill="none" id="Car-Seat" style="stroke: #A80036; stroke-width: 1.0;"/><text fill="#000000" font-family="sans-serif" font-size="13" lengthAdjust="spacingAndGlyphs" textLength="7" x="1016.9426" y="404.7651">1</text><text fill="#000000" font-family="sans-serif" font-size="13" lengthAdjust="spacingAndGlyphs" textLength="20" x="1046.0909" y="450.1433">0..*</text><!--MD5=[055835fe07521d019227ccc12eb48140]
link User.first_name to User--><path d="M240.64,383.07 C298.35,407.45 388.09,445.34 440.34,467.41 " fill="none" id="User.first_name-&gt;User" style="stroke: #A80036; stroke-width: 1.0;"/><polygon fill="#A80036" points="452.46,472.53,448.4895,466.5105,441.4058,467.8603,445.3764,473.8799,452.46,472.53" style="stroke: #A80036; stroke-width: 1.0;"/><!--MD5=[9d73bdf0c823c30f68bd5815d55f3121]
link User.last_name to User--><path d="M367.19,383.22 C389.35,402.86 421.33,431.22 445.92,453.01 " fill="none" id="User.last_name-&gt;User" style="stroke: #A80036; stroke-width: 1.0;"/><polygon fill="#A80036" points="455.95,461.91,454.1154,454.9362,446.9724,453.9475,448.807,460.9213,455.95,461.91" style="stroke: #A80036; stroke-width: 1.0;"/><!--MD5=[39bc222266a2f40ecdcf00ffe3a45d01]
link User.email to User--><path d="M482,383.22 C482,401.64 482,427.71 482,448.85 " fill="none" id="User.email-&gt;User" style="stroke: #A80036; stroke-width: 1.0;"/><polygon fill="#A80036" points="482,461.91,486,455.91,482,449.91,478,455.91,482,461.91" style="stroke: #A80036; stroke-width: 1.0;"/><text fill="#000000" font-family="sans-serif" font-size="13" lengthAdjust="spacingAndGlyphs" textLength="50" x="483" y="427.897">optional</text><!--MD5=[07fe2b83f541157a83035e8dd3fd8205]
link User.phone to User--><path d="M590.36,383.14 C576.75,397.47 558.66,416.12 542,432 C534.66,439 526.62,446.32 518.89,453.21 " fill="none" id="User.phone-&gt;User" style="stroke: #A80036; stroke-width: 1.0;"/><polygon fill="#A80036" points="508.97,461.94,516.1168,460.9793,517.9788,454.0128,510.832,454.9734,508.97,461.94" style="stroke: #A80036; stroke-width: 1.0;"/><!--MD5=[782f95ba930ed554078126100ea0c831]
link User.password_hash to User--><path d="M716.84,383.07 C661.1,407.26 574.67,444.78 523.67,466.91 " fill="none" id="User.password_hash-&gt;User" style="stroke: #A80036; stroke-width: 1.0;"/><polygon fill="#A80036" points="511.51,472.19,518.606,473.4734,522.5199,467.4169,515.4239,466.1335,511.51,472.19" style="stroke: #A80036; stroke-width: 1.0;"/><!--MD5=[7af92f6ec270334a023f3fa2c2019cae]
link User.role to User--><path d="M90.1,376.74 C96.07,378.94 102.17,381.09 108,383 C226.44,421.74 369.2,457.8 439.14,474.79 " fill="none" id="User.role-&gt;User" style="stroke: #A80036; stroke-width: 1.0;"/><polygon fill="#A80036" points="452.13,477.93,447.2382,472.6318,440.4662,475.1096,445.3579,480.4077,452.13,477.93" style="stroke: #A80036; stroke-width: 1.0;"/><!--MD5=[d4b105b613ded870c4a9484b1fc0f496]
link Train.number to Train--><path d="M744.43,165.22 C759.58,180.22 779.5,199.96 796.21,216.51 " fill="none" id="Train.number-&gt;Train" style="stroke: #A80036; stroke-width: 1.0;"/><polygon fill="#A80036" points="805.61,225.83,804.1683,218.7645,797.0918,217.3777,798.5335,224.4433,805.61,225.83" style="stroke: #A80036; stroke-width: 1.0;"/><!--MD5=[4283d1d418f0dab02f755be6e939fe9f]
link Train.name to Train--><path d="M851.71,165.22 C847.91,179.24 842.99,197.4 838.7,213.22 " fill="none" id="Train.name-&gt;Train" style="stroke: #A80036; stroke-width: 1.0;"/><polygon fill="#A80036" points="835.28,225.83,840.7104,221.0855,838.4195,214.248,832.9891,218.9925,835.28,225.83" style="stroke: #A80036; stroke-width: 1.0;"/><!--MD5=[0010d0106abe94c55cdfc99631b121ce]
link Station.name to Station--><path d="M1328,165.22 C1328,179.1 1328,197.04 1328,212.75 " fill="none" id="Station.name-&gt;Station" style="stroke: #A80036; stroke-width: 1.0;"/><polygon fill="#A80036" points="1328,225.83,1332,219.83,1328,213.83,1324,219.83,1328,225.83" style="stroke: #A80036; stroke-width: 1.0;"/><!--MD5=[6bfd2c72c567f3ae68c7078754dd5b2d]
link Station.city to Station--><path d="M1433.71,165.22 C1414.34,180.57 1388.7,200.89 1367.53,217.67 " fill="none" id="Station.city-&gt;Station" style="stroke: #A80036; stroke-width: 1.0;"/><polygon fill="#A80036" points="1357.24,225.83,1364.4268,225.2386,1366.6451,218.3772,1359.4583,218.9686,1357.24,225.83" style="stroke: #A80036; stroke-width: 1.0;"/><!--MD5=[9e1bc9583f5148eb803877a5bbc537a8]
link Station.country to Station--><path d="M1213.68,165.22 C1234.82,180.71 1262.86,201.26 1285.87,218.13 " fill="none" id="Station.country-&gt;Station" style="stroke: #A80036; stroke-width: 1.0;"/><polygon fill="#A80036" points="1296.38,225.83,1293.9054,219.0568,1286.7015,218.7359,1289.176,225.5091,1296.38,225.83" style="stroke: #A80036; stroke-width: 1.0;"/><!--MD5=[d068070ae0f0fc840e21f88504707546]
link Route.arrival_time to Route--><path d="M889.62,56.22 C917.97,73.26 956.47,96.4 985.83,114.05 " fill="none" id="Route.arrival_time-&gt;Route" style="stroke: #A80036; stroke-width: 1.0;"/><polygon fill="#A80036" points="996.99,120.76,993.9092,114.2401,986.7059,114.5764,989.7867,121.0962,996.99,120.76" style="stroke: #A80036; stroke-width: 1.0;"/><!--MD5=[397fcf47e21096f9602f9e6ca01f03d9]
link Route.departure_time to Route--><path d="M1029,56.22 C1029,70.1 1029,88.04 1029,103.75 " fill="none" id="Route.departure_time-&gt;Route" style="stroke: #A80036; stroke-width: 1.0;"/><polygon fill="#A80036" points="1029,116.83,1033,110.83,1029,104.83,1025,110.83,1029,116.83" style="stroke: #A80036; stroke-width: 1.0;"/><!--MD5=[85b3a778ae4723e6f14d01373219cec3]
link Route.stop_order to Route--><path d="M1166.03,56.22 C1138.46,73.07 1101.12,95.91 1072.38,113.48 " fill="none" id="Route.stop_order-&gt;Route" style="stroke: #A80036; stroke-width: 1.0;"/><polygon fill="#A80036" points="1061.03,120.41,1068.2357,120.6892,1071.2648,114.1451,1064.0591,113.866,1061.03,120.41" style="stroke: #A80036; stroke-width: 1.0;"/><!--MD5=[06c81feadce79eb04ddc65261334a54e]
link Car.number to Car--><path d="M957.45,274.22 C965.74,288.52 976.52,307.13 985.82,323.17 " fill="none" id="Car.number-&gt;Car" style="stroke: #A80036; stroke-width: 1.0;"/><polygon fill="#A80036" points="992.57,334.83,993.023,327.6331,986.5539,324.447,986.101,331.6439,992.57,334.83" style="stroke: #A80036; stroke-width: 1.0;"/><!--MD5=[2bc2db1c2bd8fbc74d24c235e3e4070a]
link Car.type to Car--><path d="M1054.55,274.22 C1046.26,288.52 1035.48,307.13 1026.18,323.17 " fill="none" id="Car.type-&gt;Car" style="stroke: #A80036; stroke-width: 1.0;"/><polygon fill="#A80036" points="1019.43,334.83,1025.899,331.6439,1025.4461,324.447,1018.977,327.6331,1019.43,334.83" style="stroke: #A80036; stroke-width: 1.0;"/><!--MD5=[93ce7c2577458213516fc978d9d72f3c]
link Car.total_seats to Car--><path d="M1157.9,274.22 C1124.01,292.91 1076.78,318.96 1044.02,337.03 " fill="none" id="Car.total_seats-&gt;Car" style="stroke: #A80036; stroke-width: 1.0;"/><polygon fill="#A80036" points="1032.23,343.53,1039.4154,344.1389,1042.741,337.7404,1035.5556,337.1315,1032.23,343.53" style="stroke: #A80036; stroke-width: 1.0;"/><!--MD5=[03e4f062884cca5b591f07035efe870a]
link Seat.number to Seat--><path d="M1113.24,383.22 C1108.65,401.72 1102.15,427.96 1096.89,449.15 " fill="none" id="Seat.number-&gt;Seat" style="stroke: #A80036; stroke-width: 1.0;"/><polygon fill="#A80036" points="1093.73,461.91,1099.0567,457.0493,1096.6187,450.2629,1091.292,455.1235,1093.73,461.91" style="stroke: #A80036; stroke-width: 1.0;"/><!--MD5=[b49201050c4f235b627bdd867736c9cd]
link Seat.type to Seat--><path d="M1218.28,383.22 C1192.56,403.31 1155.17,432.52 1127.04,454.5 " fill="none" id="Seat.type-&gt;Seat" style="stroke: #A80036; stroke-width: 1.0;"/><polygon fill="#A80036" points="1116.75,462.54,1123.9408,461.9992,1126.2073,455.1536,1119.0165,455.6943,1116.75,462.54" style="stroke: #A80036; stroke-width: 1.0;"/><!--MD5=[a7a92c84c7b9289fb008a3f35f65c24e]
@startuml

entity User #green
entity Train #green
entity Station #green
entity Route #blue
entity Car #green
entity Seat #green
entity Ticket #green
entity Payment #green

entity User.first_name
entity User.last_name
entity User.email
entity User.phone
entity User.password_hash
entity User.role

entity Train.number
entity Train.name
entity Train.total_cars

entity Station.name
entity Station.city
entity Station.country

entity Route.arrival_time
entity Route.departure_time
entity Route.stop_order

entity Car.number
entity Car.type
entity Car.total_seats

entity Seat.number
entity Seat.type

Ticket "0..*" - - "1" User
Ticket "0..*" - - "1" Payment
Ticket "1" - - "1" Seat

Route "0..*" - - "1" Train
Route "0..*" - - "1" Station

Train "1" - - "0..*" Car
Car "1" - - "0..*" Seat


User.first_name - -* User
User.last_name - -* User
User.email - -* User : optional
User.phone - -* User
User.password_hash - -* User
User.role - -* User

Train.number - -* Train
Train.name - -* Train

Station.name - -* Station
Station.city - -* Station
Station.country - -* Station

Route.arrival_time - -* Route
Route.departure_time - -* Route
Route.stop_order - -* Route

Car.number - -* Car
Car.type - -* Car
Car.total_seats - -* Car

Seat.number - -* Seat
Seat.type - -* Seat


@enduml

PlantUML version 1.2020.02(Sun Mar 01 10:22:07 UTC 2020)
(GPL source distribution)
Java Runtime: OpenJDK Runtime Environment
JVM: OpenJDK 64-Bit Server VM
Java Version: 21.0.5+11-Ubuntu-1ubuntu124.04
Operating System: Linux
Default Encoding: UTF-8
Language: en
Country: US
--></g></svg>