<?xml version="1.0" encoding="UTF-8" standalone="no"?><svg xmlns="http://www.w3.org/2000/svg" xmlns:xlink="http://www.w3.org/1999/xlink" contentScriptType="application/ecmascript" contentStyleType="text/css" height="284px" preserveAspectRatio="none" style="width:168px;height:284px;" version="1.1" viewBox="0 0 168 284" width="168px" zoomAndPan="magnify"><defs><filter height="300%" id="f1xovc51knjk06" width="300%" x="-1" y="-1"><feGaussianBlur result="blurOut" stdDeviation="2.0"/><feColorMatrix in="blurOut" result="blurOut2" type="matrix" values="0 0 0 0 0 0 0 0 0 0 0 0 0 0 0 0 0 0 .4 0"/><feOffset dx="4.0" dy="4.0" in="blurOut2" result="blurOut3"/><feBlend in="SourceGraphic" in2="blurOut3" mode="normal"/></filter></defs><g><!--MD5=[764fca796ce7f635542948d8fc39db5e]
class Payment--><rect fill="#FEFECE" filter="url(#f1xovc51knjk06)" height="137.8913" id="Payment" style="stroke: #A80036; stroke-width: 1.5;" width="151" x="6" y="8"/><ellipse cx="52.75" cy="24" fill="#ADD1B2" rx="11" ry="11" style="stroke: #A80036; stroke-width: 1.0;"/><path d="M55.7188,29.6406 Q55.1406,29.9375 54.5,30.0781 Q53.8594,30.2344 53.1563,30.2344 Q50.6563,30.2344 49.3281,28.5938 Q48.0156,26.9375 48.0156,23.8125 Q48.0156,20.6875 49.3281,19.0313 Q50.6563,17.375 53.1563,17.375 Q53.8594,17.375 54.5,17.5313 Q55.1563,17.6875 55.7188,17.9844 L55.7188,20.7031 Q55.0938,20.125 54.5,19.8594 Q53.9063,19.5781 53.2813,19.5781 Q51.9375,19.5781 51.25,20.6563 Q50.5625,21.7188 50.5625,23.8125 Q50.5625,25.9063 51.25,26.9844 Q51.9375,28.0469 53.2813,28.0469 Q53.9063,28.0469 54.5,27.7813 Q55.0938,27.5 55.7188,26.9219 L55.7188,29.6406 Z "/><text fill="#000000" font-family="sans-serif" font-size="12" lengthAdjust="spacingAndGlyphs" textLength="49" x="73.25" y="28.656">Payment</text><line style="stroke: #A80036; stroke-width: 1.5;" x1="7" x2="156" y1="40" y2="40"/><ellipse cx="17" cy="51" fill="none" rx="3" ry="3" style="stroke: #038048; stroke-width: 1.0;"/><text fill="#000000" font-family="sans-serif" font-size="11" lengthAdjust="spacingAndGlyphs" textLength="72" x="26" y="55.7589">ticketId: Long</text><ellipse cx="17" cy="65.9819" fill="none" rx="3" ry="3" style="stroke: #038048; stroke-width: 1.0;"/><text fill="#000000" font-family="sans-serif" font-size="11" lengthAdjust="spacingAndGlyphs" textLength="67" x="26" y="70.7408">userId: Long</text><ellipse cx="17" cy="80.9638" fill="none" rx="3" ry="3" style="stroke: #038048; stroke-width: 1.0;"/><text fill="#000000" font-family="sans-serif" font-size="11" lengthAdjust="spacingAndGlyphs" textLength="88" x="26" y="85.7227">amount: Decimal</text><ellipse cx="17" cy="95.9457" fill="none" rx="3" ry="3" style="stroke: #038048; stroke-width: 1.0;"/><text fill="#000000" font-family="sans-serif" font-size="11" lengthAdjust="spacingAndGlyphs" textLength="125" x="26" y="100.7046">paymentMethod: String</text><ellipse cx="17" cy="110.9276" fill="none" rx="3" ry="3" style="stroke: #038048; stroke-width: 1.0;"/><text fill="#000000" font-family="sans-serif" font-size="11" lengthAdjust="spacingAndGlyphs" textLength="69" x="26" y="115.6865">status: String</text><ellipse cx="17" cy="125.9094" fill="none" rx="3" ry="3" style="stroke: #038048; stroke-width: 1.0;"/><text fill="#000000" font-family="sans-serif" font-size="11" lengthAdjust="spacingAndGlyphs" textLength="105" x="26" y="130.6684">createdAt: DateTime</text><line style="stroke: #A80036; stroke-width: 1.5;" x1="7" x2="156" y1="137.8913" y2="137.8913"/><!--MD5=[ac6bea31e13c94c7baa9ad18feb7405e]
class Ticket--><rect fill="#FEFECE" filter="url(#f1xovc51knjk06)" height="48" id="Ticket" style="stroke: #A80036; stroke-width: 1.5;" width="65" x="49" y="225"/><ellipse cx="64" cy="241" fill="#ADD1B2" rx="11" ry="11" style="stroke: #A80036; stroke-width: 1.0;"/><path d="M66.9688,246.6406 Q66.3906,246.9375 65.75,247.0781 Q65.1094,247.2344 64.4063,247.2344 Q61.9063,247.2344 60.5781,245.5938 Q59.2656,243.9375 59.2656,240.8125 Q59.2656,237.6875 60.5781,236.0313 Q61.9063,234.375 64.4063,234.375 Q65.1094,234.375 65.75,234.5313 Q66.4063,234.6875 66.9688,234.9844 L66.9688,237.7031 Q66.3438,237.125 65.75,236.8594 Q65.1563,236.5781 64.5313,236.5781 Q63.1875,236.5781 62.5,237.6563 Q61.8125,238.7188 61.8125,240.8125 Q61.8125,242.9063 62.5,243.9844 Q63.1875,245.0469 64.5313,245.0469 Q65.1563,245.0469 65.75,244.7813 Q66.3438,244.5 66.9688,243.9219 L66.9688,246.6406 Z "/><text fill="#000000" font-family="sans-serif" font-size="12" lengthAdjust="spacingAndGlyphs" textLength="33" x="78" y="245.656">Ticket</text><line style="stroke: #A80036; stroke-width: 1.5;" x1="50" x2="113" y1="257" y2="257"/><line style="stroke: #A80036; stroke-width: 1.5;" x1="50" x2="113" y1="265" y2="265"/><!--MD5=[42e39441bd4552e2755ec803f3678c9a]
link Payment to Ticket--><path d="M81.5,146.17 C81.5,171.77 81.5,199.51 81.5,219.55 " fill="none" id="Payment-&gt;Ticket" style="stroke: #A80036; stroke-width: 1.0;"/><polygon fill="#A80036" points="81.5,224.74,85.5,215.74,81.5,219.74,77.5,215.74,81.5,224.74" style="stroke: #A80036; stroke-width: 1.0;"/><text fill="#000000" font-family="sans-serif" font-size="13" lengthAdjust="spacingAndGlyphs" textLength="52" x="82.5" y="190.897">linked to</text><text fill="#000000" font-family="sans-serif" font-size="13" lengthAdjust="spacingAndGlyphs" textLength="7" x="74.1555" y="167.7528">1</text><text fill="#000000" font-family="sans-serif" font-size="13" lengthAdjust="spacingAndGlyphs" textLength="20" x="58.9375" y="213.3327">0..*</text><!--MD5=[8e0a2310e2d83042b525722824601de0]
@startuml paymentservice
class Payment {
  +ticketId: Long
  +userId: Long
  +amount: Decimal
  +paymentMethod: String
  +status: String
  +createdAt: DateTime
}

Payment "1" - -> "0..*" Ticket : linked to

@enduml

PlantUML version 1.2020.02(Sun Mar 01 10:22:07 UTC 2020)
(GPL source distribution)
Java Runtime: OpenJDK Runtime Environment
JVM: OpenJDK 64-Bit Server VM
Java Version: 21.0.5+11-Ubuntu-1ubuntu124.04
Operating System: Linux
Default Encoding: UTF-8
Language: en
Country: US
--></g></svg>