<?xml version="1.0" encoding="UTF-8" standalone="no"?><svg xmlns="http://www.w3.org/2000/svg" xmlns:xlink="http://www.w3.org/1999/xlink" contentScriptType="application/ecmascript" contentStyleType="text/css" height="688px" preserveAspectRatio="none" style="width:329px;height:688px;" version="1.1" viewBox="0 0 329 688" width="329px" zoomAndPan="magnify"><defs><filter height="300%" id="fwvh8ug2fxwdc" width="300%" x="-1" y="-1"><feGaussianBlur result="blurOut" stdDeviation="2.0"/><feColorMatrix in="blurOut" result="blurOut2" type="matrix" values="0 0 0 0 0 0 0 0 0 0 0 0 0 0 0 0 0 0 .4 0"/><feOffset dx="4.0" dy="4.0" in="blurOut2" result="blurOut3"/><feBlend in="SourceGraphic" in2="blurOut3" mode="normal"/></filter></defs><g><!--MD5=[ff74e0f0bb3fa51f8c743cb54bdb5b13]
class Train--><rect fill="#FEFECE" filter="url(#fwvh8ug2fxwdc)" height="122.9094" id="Train" style="stroke: #A80036; stroke-width: 1.5;" width="132" x="6" y="8"/><ellipse cx="53.25" cy="24" fill="#ADD1B2" rx="11" ry="11" style="stroke: #A80036; stroke-width: 1.0;"/><path d="M56.2188,29.6406 Q55.6406,29.9375 55,30.0781 Q54.3594,30.2344 53.6563,30.2344 Q51.1563,30.2344 49.8281,28.5938 Q48.5156,26.9375 48.5156,23.8125 Q48.5156,20.6875 49.8281,19.0313 Q51.1563,17.375 53.6563,17.375 Q54.3594,17.375 55,17.5313 Q55.6563,17.6875 56.2188,17.9844 L56.2188,20.7031 Q55.5938,20.125 55,19.8594 Q54.4063,19.5781 53.7813,19.5781 Q52.4375,19.5781 51.75,20.6563 Q51.0625,21.7188 51.0625,23.8125 Q51.0625,25.9063 51.75,26.9844 Q52.4375,28.0469 53.7813,28.0469 Q54.4063,28.0469 55,27.7813 Q55.5938,27.5 56.2188,26.9219 L56.2188,29.6406 Z "/><text fill="#000000" font-family="sans-serif" font-size="12" lengthAdjust="spacingAndGlyphs" textLength="29" x="73.75" y="28.656">Train</text><line style="stroke: #A80036; stroke-width: 1.5;" x1="7" x2="137" y1="40" y2="40"/><ellipse cx="17" cy="51" fill="none" rx="3" ry="3" style="stroke: #038048; stroke-width: 1.0;"/><text fill="#000000" font-family="sans-serif" font-size="11" lengthAdjust="spacingAndGlyphs" textLength="69" x="26" y="55.7589">trainId: Long</text><ellipse cx="17" cy="65.9819" fill="none" rx="3" ry="3" style="stroke: #038048; stroke-width: 1.0;"/><text fill="#000000" font-family="sans-serif" font-size="11" lengthAdjust="spacingAndGlyphs" textLength="106" x="26" y="70.7408">trainNumber: String</text><ellipse cx="17" cy="80.9638" fill="none" rx="3" ry="3" style="stroke: #038048; stroke-width: 1.0;"/><text fill="#000000" font-family="sans-serif" font-size="11" lengthAdjust="spacingAndGlyphs" textLength="67" x="26" y="85.7227">name: String</text><ellipse cx="17" cy="95.9457" fill="none" rx="3" ry="3" style="stroke: #038048; stroke-width: 1.0;"/><text fill="#000000" font-family="sans-serif" font-size="11" lengthAdjust="spacingAndGlyphs" textLength="68" x="26" y="100.7046">totalCars: Int</text><ellipse cx="17" cy="110.9276" fill="none" rx="3" ry="3" style="stroke: #038048; stroke-width: 1.0;"/><text fill="#000000" font-family="sans-serif" font-size="11" lengthAdjust="spacingAndGlyphs" textLength="105" x="26" y="115.6865">createdAt: DateTime</text><line style="stroke: #A80036; stroke-width: 1.5;" x1="7" x2="137" y1="122.9094" y2="122.9094"/><!--MD5=[32f8e77670dc7b12ba11221465fb86a4]
class Station--><rect fill="#FEFECE" filter="url(#fwvh8ug2fxwdc)" height="122.9094" id="Station" style="stroke: #A80036; stroke-width: 1.5;" width="131" x="173.5" y="8"/><ellipse cx="215.5" cy="24" fill="#ADD1B2" rx="11" ry="11" style="stroke: #A80036; stroke-width: 1.0;"/><path d="M218.4688,29.6406 Q217.8906,29.9375 217.25,30.0781 Q216.6094,30.2344 215.9063,30.2344 Q213.4063,30.2344 212.0781,28.5938 Q210.7656,26.9375 210.7656,23.8125 Q210.7656,20.6875 212.0781,19.0313 Q213.4063,17.375 215.9063,17.375 Q216.6094,17.375 217.25,17.5313 Q217.9063,17.6875 218.4688,17.9844 L218.4688,20.7031 Q217.8438,20.125 217.25,19.8594 Q216.6563,19.5781 216.0313,19.5781 Q214.6875,19.5781 214,20.6563 Q213.3125,21.7188 213.3125,23.8125 Q213.3125,25.9063 214,26.9844 Q214.6875,28.0469 216.0313,28.0469 Q216.6563,28.0469 217.25,27.7813 Q217.8438,27.5 218.4688,26.9219 L218.4688,29.6406 Z "/><text fill="#000000" font-family="sans-serif" font-size="12" lengthAdjust="spacingAndGlyphs" textLength="39" x="235.5" y="28.656">Station</text><line style="stroke: #A80036; stroke-width: 1.5;" x1="174.5" x2="303.5" y1="40" y2="40"/><ellipse cx="184.5" cy="51" fill="none" rx="3" ry="3" style="stroke: #038048; stroke-width: 1.0;"/><text fill="#000000" font-family="sans-serif" font-size="11" lengthAdjust="spacingAndGlyphs" textLength="80" x="193.5" y="55.7589">stationId: Long</text><ellipse cx="184.5" cy="65.9819" fill="none" rx="3" ry="3" style="stroke: #038048; stroke-width: 1.0;"/><text fill="#000000" font-family="sans-serif" font-size="11" lengthAdjust="spacingAndGlyphs" textLength="67" x="193.5" y="70.7408">name: String</text><ellipse cx="184.5" cy="80.9638" fill="none" rx="3" ry="3" style="stroke: #038048; stroke-width: 1.0;"/><text fill="#000000" font-family="sans-serif" font-size="11" lengthAdjust="spacingAndGlyphs" textLength="56" x="193.5" y="85.7227">city: String</text><ellipse cx="184.5" cy="95.9457" fill="none" rx="3" ry="3" style="stroke: #038048; stroke-width: 1.0;"/><text fill="#000000" font-family="sans-serif" font-size="11" lengthAdjust="spacingAndGlyphs" textLength="79" x="193.5" y="100.7046">country: String</text><ellipse cx="184.5" cy="110.9276" fill="none" rx="3" ry="3" style="stroke: #038048; stroke-width: 1.0;"/><text fill="#000000" font-family="sans-serif" font-size="11" lengthAdjust="spacingAndGlyphs" textLength="105" x="193.5" y="115.6865">createdAt: DateTime</text><line style="stroke: #A80036; stroke-width: 1.5;" x1="174.5" x2="303.5" y1="122.9094" y2="122.9094"/><!--MD5=[fc92a9f5bb5fae84dd7fa4034e6b4444]
class Route--><rect fill="#FEFECE" filter="url(#fwvh8ug2fxwdc)" height="152.8732" id="Route" style="stroke: #A80036; stroke-width: 1.5;" width="159" x="159.5" y="210"/><ellipse cx="218.75" cy="226" fill="#ADD1B2" rx="11" ry="11" style="stroke: #A80036; stroke-width: 1.0;"/><path d="M221.7188,231.6406 Q221.1406,231.9375 220.5,232.0781 Q219.8594,232.2344 219.1563,232.2344 Q216.6563,232.2344 215.3281,230.5938 Q214.0156,228.9375 214.0156,225.8125 Q214.0156,222.6875 215.3281,221.0313 Q216.6563,219.375 219.1563,219.375 Q219.8594,219.375 220.5,219.5313 Q221.1563,219.6875 221.7188,219.9844 L221.7188,222.7031 Q221.0938,222.125 220.5,221.8594 Q219.9063,221.5781 219.2813,221.5781 Q217.9375,221.5781 217.25,222.6563 Q216.5625,223.7188 216.5625,225.8125 Q216.5625,227.9063 217.25,228.9844 Q217.9375,230.0469 219.2813,230.0469 Q219.9063,230.0469 220.5,229.7813 Q221.0938,229.5 221.7188,228.9219 L221.7188,231.6406 Z "/><text fill="#000000" font-family="sans-serif" font-size="12" lengthAdjust="spacingAndGlyphs" textLength="32" x="239.25" y="230.656">Route</text><line style="stroke: #A80036; stroke-width: 1.5;" x1="160.5" x2="317.5" y1="242" y2="242"/><ellipse cx="170.5" cy="253" fill="none" rx="3" ry="3" style="stroke: #038048; stroke-width: 1.0;"/><text fill="#000000" font-family="sans-serif" font-size="11" lengthAdjust="spacingAndGlyphs" textLength="73" x="179.5" y="257.7589">routeId: Long</text><ellipse cx="170.5" cy="267.9819" fill="none" rx="3" ry="3" style="stroke: #038048; stroke-width: 1.0;"/><text fill="#000000" font-family="sans-serif" font-size="11" lengthAdjust="spacingAndGlyphs" textLength="69" x="179.5" y="272.7408">trainId: Long</text><ellipse cx="170.5" cy="282.9638" fill="none" rx="3" ry="3" style="stroke: #038048; stroke-width: 1.0;"/><text fill="#000000" font-family="sans-serif" font-size="11" lengthAdjust="spacingAndGlyphs" textLength="80" x="179.5" y="287.7227">stationId: Long</text><ellipse cx="170.5" cy="297.9457" fill="none" rx="3" ry="3" style="stroke: #038048; stroke-width: 1.0;"/><text fill="#000000" font-family="sans-serif" font-size="11" lengthAdjust="spacingAndGlyphs" textLength="114" x="179.5" y="302.7046">arrivalTime: DateTime</text><ellipse cx="170.5" cy="312.9276" fill="none" rx="3" ry="3" style="stroke: #038048; stroke-width: 1.0;"/><text fill="#000000" font-family="sans-serif" font-size="11" lengthAdjust="spacingAndGlyphs" textLength="133" x="179.5" y="317.6865">departureTime: DateTime</text><ellipse cx="170.5" cy="327.9094" fill="none" rx="3" ry="3" style="stroke: #038048; stroke-width: 1.0;"/><text fill="#000000" font-family="sans-serif" font-size="11" lengthAdjust="spacingAndGlyphs" textLength="76" x="179.5" y="332.6684">stopOrder: Int</text><ellipse cx="170.5" cy="342.8913" fill="none" rx="3" ry="3" style="stroke: #038048; stroke-width: 1.0;"/><text fill="#000000" font-family="sans-serif" font-size="11" lengthAdjust="spacingAndGlyphs" textLength="105" x="179.5" y="347.6502">createdAt: DateTime</text><line style="stroke: #A80036; stroke-width: 1.5;" x1="160.5" x2="317.5" y1="354.8732" y2="354.8732"/><!--MD5=[3f0ef310aaa84a542276992c5216544d]
class Car--><rect fill="#FEFECE" filter="url(#fwvh8ug2fxwdc)" height="122.9094" id="Car" style="stroke: #A80036; stroke-width: 1.5;" width="106" x="18" y="225"/><ellipse cx="57.3" cy="241" fill="#ADD1B2" rx="11" ry="11" style="stroke: #A80036; stroke-width: 1.0;"/><path d="M60.2688,246.6406 Q59.6906,246.9375 59.05,247.0781 Q58.4094,247.2344 57.7063,247.2344 Q55.2063,247.2344 53.8781,245.5938 Q52.5656,243.9375 52.5656,240.8125 Q52.5656,237.6875 53.8781,236.0313 Q55.2063,234.375 57.7063,234.375 Q58.4094,234.375 59.05,234.5313 Q59.7063,234.6875 60.2688,234.9844 L60.2688,237.7031 Q59.6438,237.125 59.05,236.8594 Q58.4563,236.5781 57.8313,236.5781 Q56.4875,236.5781 55.8,237.6563 Q55.1125,238.7188 55.1125,240.8125 Q55.1125,242.9063 55.8,243.9844 Q56.4875,245.0469 57.8313,245.0469 Q58.4563,245.0469 59.05,244.7813 Q59.6438,244.5 60.2688,243.9219 L60.2688,246.6406 Z "/><text fill="#000000" font-family="sans-serif" font-size="12" lengthAdjust="spacingAndGlyphs" textLength="20" x="76.7" y="245.656">Car</text><line style="stroke: #A80036; stroke-width: 1.5;" x1="19" x2="123" y1="257" y2="257"/><ellipse cx="29" cy="268" fill="none" rx="3" ry="3" style="stroke: #038048; stroke-width: 1.0;"/><text fill="#000000" font-family="sans-serif" font-size="11" lengthAdjust="spacingAndGlyphs" textLength="60" x="38" y="272.7589">carId: Long</text><ellipse cx="29" cy="282.9819" fill="none" rx="3" ry="3" style="stroke: #038048; stroke-width: 1.0;"/><text fill="#000000" font-family="sans-serif" font-size="11" lengthAdjust="spacingAndGlyphs" textLength="69" x="38" y="287.7408">trainId: Long</text><ellipse cx="29" cy="297.9638" fill="none" rx="3" ry="3" style="stroke: #038048; stroke-width: 1.0;"/><text fill="#000000" font-family="sans-serif" font-size="11" lengthAdjust="spacingAndGlyphs" textLength="80" x="38" y="302.7227">carNumber: Int</text><ellipse cx="29" cy="312.9457" fill="none" rx="3" ry="3" style="stroke: #038048; stroke-width: 1.0;"/><text fill="#000000" font-family="sans-serif" font-size="11" lengthAdjust="spacingAndGlyphs" textLength="61" x="38" y="317.7046">type: String</text><ellipse cx="29" cy="327.9276" fill="none" rx="3" ry="3" style="stroke: #038048; stroke-width: 1.0;"/><text fill="#000000" font-family="sans-serif" font-size="11" lengthAdjust="spacingAndGlyphs" textLength="72" x="38" y="332.6865">totalSeats: Int</text><line style="stroke: #A80036; stroke-width: 1.5;" x1="19" x2="123" y1="339.9094" y2="339.9094"/><!--MD5=[3640288bb00e105a19a150bd568b9756]
class Seat--><rect fill="#FEFECE" filter="url(#fwvh8ug2fxwdc)" height="107.9276" id="Seat" style="stroke: #A80036; stroke-width: 1.5;" width="111" x="46.5" y="442"/><ellipse cx="85.8" cy="458" fill="#ADD1B2" rx="11" ry="11" style="stroke: #A80036; stroke-width: 1.0;"/><path d="M88.7688,463.6406 Q88.1906,463.9375 87.55,464.0781 Q86.9094,464.2344 86.2063,464.2344 Q83.7063,464.2344 82.3781,462.5938 Q81.0656,460.9375 81.0656,457.8125 Q81.0656,454.6875 82.3781,453.0313 Q83.7063,451.375 86.2063,451.375 Q86.9094,451.375 87.55,451.5313 Q88.2063,451.6875 88.7688,451.9844 L88.7688,454.7031 Q88.1438,454.125 87.55,453.8594 Q86.9563,453.5781 86.3313,453.5781 Q84.9875,453.5781 84.3,454.6563 Q83.6125,455.7188 83.6125,457.8125 Q83.6125,459.9063 84.3,460.9844 Q84.9875,462.0469 86.3313,462.0469 Q86.9563,462.0469 87.55,461.7813 Q88.1438,461.5 88.7688,460.9219 L88.7688,463.6406 Z "/><text fill="#000000" font-family="sans-serif" font-size="12" lengthAdjust="spacingAndGlyphs" textLength="25" x="105.2" y="462.656">Seat</text><line style="stroke: #A80036; stroke-width: 1.5;" x1="47.5" x2="156.5" y1="474" y2="474"/><ellipse cx="57.5" cy="485" fill="none" rx="3" ry="3" style="stroke: #038048; stroke-width: 1.0;"/><text fill="#000000" font-family="sans-serif" font-size="11" lengthAdjust="spacingAndGlyphs" textLength="65" x="66.5" y="489.7589">seatId: Long</text><ellipse cx="57.5" cy="499.9819" fill="none" rx="3" ry="3" style="stroke: #038048; stroke-width: 1.0;"/><text fill="#000000" font-family="sans-serif" font-size="11" lengthAdjust="spacingAndGlyphs" textLength="60" x="66.5" y="504.7408">carId: Long</text><ellipse cx="57.5" cy="514.9638" fill="none" rx="3" ry="3" style="stroke: #038048; stroke-width: 1.0;"/><text fill="#000000" font-family="sans-serif" font-size="11" lengthAdjust="spacingAndGlyphs" textLength="85" x="66.5" y="519.7227">seatNumber: Int</text><ellipse cx="57.5" cy="529.9457" fill="none" rx="3" ry="3" style="stroke: #038048; stroke-width: 1.0;"/><text fill="#000000" font-family="sans-serif" font-size="11" lengthAdjust="spacingAndGlyphs" textLength="61" x="66.5" y="534.7046">type: String</text><line style="stroke: #A80036; stroke-width: 1.5;" x1="47.5" x2="156.5" y1="541.9276" y2="541.9276"/><!--MD5=[ac6bea31e13c94c7baa9ad18feb7405e]
class Ticket--><rect fill="#FEFECE" filter="url(#fwvh8ug2fxwdc)" height="48" id="Ticket" style="stroke: #A80036; stroke-width: 1.5;" width="65" x="137.5" y="629"/><ellipse cx="152.5" cy="645" fill="#ADD1B2" rx="11" ry="11" style="stroke: #A80036; stroke-width: 1.0;"/><path d="M155.4688,650.6406 Q154.8906,650.9375 154.25,651.0781 Q153.6094,651.2344 152.9063,651.2344 Q150.4063,651.2344 149.0781,649.5938 Q147.7656,647.9375 147.7656,644.8125 Q147.7656,641.6875 149.0781,640.0313 Q150.4063,638.375 152.9063,638.375 Q153.6094,638.375 154.25,638.5313 Q154.9063,638.6875 155.4688,638.9844 L155.4688,641.7031 Q154.8438,641.125 154.25,640.8594 Q153.6563,640.5781 153.0313,640.5781 Q151.6875,640.5781 151,641.6563 Q150.3125,642.7188 150.3125,644.8125 Q150.3125,646.9063 151,647.9844 Q151.6875,649.0469 153.0313,649.0469 Q153.6563,649.0469 154.25,648.7813 Q154.8438,648.5 155.4688,647.9219 L155.4688,650.6406 Z "/><text fill="#000000" font-family="sans-serif" font-size="12" lengthAdjust="spacingAndGlyphs" textLength="33" x="166.5" y="649.656">Ticket</text><line style="stroke: #A80036; stroke-width: 1.5;" x1="138.5" x2="201.5" y1="661" y2="661"/><line style="stroke: #A80036; stroke-width: 1.5;" x1="138.5" x2="201.5" y1="669" y2="669"/><!--MD5=[f79e86a961d2633a4a2474e266ed3013]
link Train to Route--><path d="M119.19,131.25 C137.15,154.37 157.89,181.08 177.02,205.71 " fill="none" id="Train-&gt;Route" style="stroke: #A80036; stroke-width: 1.0;"/><polygon fill="#A80036" points="180.33,209.96,177.9548,200.4019,177.2573,206.0155,171.6436,205.3181,180.33,209.96" style="stroke: #A80036; stroke-width: 1.0;"/><text fill="#000000" font-family="sans-serif" font-size="13" lengthAdjust="spacingAndGlyphs" textLength="42" x="157" y="175.897">follows</text><text fill="#000000" font-family="sans-serif" font-size="13" lengthAdjust="spacingAndGlyphs" textLength="7" x="116.9686" y="152.8742">1</text><text fill="#000000" font-family="sans-serif" font-size="13" lengthAdjust="spacingAndGlyphs" textLength="20" x="153.2484" y="198.1302">0..*</text><!--MD5=[517d127dc81698daa0fb6981f788238c]
link Train to Car--><path d="M71.72,131.25 C71.59,158.84 71.44,191.53 71.31,219.7 " fill="none" id="Train-&gt;Car" style="stroke: #A80036; stroke-width: 1.0;"/><polygon fill="#A80036" points="71.28,224.9,75.3314,215.923,71.3086,219.9001,67.3315,215.8773,71.28,224.9" style="stroke: #A80036; stroke-width: 1.0;"/><text fill="#000000" font-family="sans-serif" font-size="13" lengthAdjust="spacingAndGlyphs" textLength="21" x="73" y="175.897">has</text><text fill="#000000" font-family="sans-serif" font-size="13" lengthAdjust="spacingAndGlyphs" textLength="7" x="64.3066" y="152.8742">1</text><text fill="#000000" font-family="sans-serif" font-size="13" lengthAdjust="spacingAndGlyphs" textLength="20" x="50.0954" y="213.3021">0..*</text><!--MD5=[ec39eded56303e0fc6c2f79b2609842a]
link Car to Seat--><path d="M80.05,348.08 C84.22,376 89.15,409.01 93.28,436.66 " fill="none" id="Car-&gt;Seat" style="stroke: #A80036; stroke-width: 1.0;"/><polygon fill="#A80036" points="94.05,441.76,96.668,432.2655,93.3069,436.8155,88.7568,433.4544,94.05,441.76" style="stroke: #A80036; stroke-width: 1.0;"/><text fill="#000000" font-family="sans-serif" font-size="13" lengthAdjust="spacingAndGlyphs" textLength="51" x="91" y="407.897">contains</text><text fill="#000000" font-family="sans-serif" font-size="13" lengthAdjust="spacingAndGlyphs" textLength="7" x="73.657" y="369.6856">1</text><text fill="#000000" font-family="sans-serif" font-size="13" lengthAdjust="spacingAndGlyphs" textLength="20" x="71.638" y="430.2786">0..*</text><!--MD5=[3380331d7c39ba836aee281e32a35c03]
link Station to Route--><path d="M239,131.25 C239,154.09 239,180.42 239,204.79 " fill="none" id="Station-&gt;Route" style="stroke: #A80036; stroke-width: 1.0;"/><polygon fill="#A80036" points="239,209.96,243,200.96,239,204.96,235,200.96,239,209.96" style="stroke: #A80036; stroke-width: 1.0;"/><text fill="#000000" font-family="sans-serif" font-size="13" lengthAdjust="spacingAndGlyphs" textLength="40" x="240" y="175.897">part of</text><text fill="#000000" font-family="sans-serif" font-size="13" lengthAdjust="spacingAndGlyphs" textLength="7" x="231.6172" y="152.8742">1</text><text fill="#000000" font-family="sans-serif" font-size="13" lengthAdjust="spacingAndGlyphs" textLength="20" x="217.9688" y="198.1302">0..*</text><!--MD5=[c970226d0d3c9be987ed395e2183788f]
link Route to Ticket--><path d="M243.85,363.2 C245.32,428.02 240.96,522.68 211,599 C207.45,608.05 201.85,616.83 195.92,624.56 " fill="none" id="Route-&gt;Ticket" style="stroke: #A80036; stroke-width: 1.0;"/><polygon fill="#A80036" points="192.6,628.74,201.3336,624.1876,195.713,624.8273,195.0733,619.2067,192.6,628.74" style="stroke: #A80036; stroke-width: 1.0;"/><text fill="#000000" font-family="sans-serif" font-size="13" lengthAdjust="spacingAndGlyphs" textLength="46" x="243" y="501.397">listed in</text><text fill="#000000" font-family="sans-serif" font-size="13" lengthAdjust="spacingAndGlyphs" textLength="7" x="236.9702" y="384.7222">2</text><text fill="#000000" font-family="sans-serif" font-size="13" lengthAdjust="spacingAndGlyphs" textLength="7" x="190.4944" y="617.3327">1</text><!--MD5=[733cdbbc24d204837f427945aa44117b]
link Seat to Ticket--><path d="M116.22,550.21 C121.3,566.25 127.62,583.65 135,599 C139.15,607.64 144.52,616.52 149.8,624.48 " fill="none" id="Seat-&gt;Ticket" style="stroke: #A80036; stroke-width: 1.0;"/><polygon fill="#A80036" points="152.71,628.8,150.9844,619.1035,149.9102,624.6574,144.3563,623.5832,152.71,628.8" style="stroke: #A80036; stroke-width: 1.0;"/><text fill="#000000" font-family="sans-serif" font-size="13" lengthAdjust="spacingAndGlyphs" textLength="70" x="136" y="594.897">reserved by</text><text fill="#000000" font-family="sans-serif" font-size="13" lengthAdjust="spacingAndGlyphs" textLength="7" x="110.5265" y="571.7972">1</text><text fill="#000000" font-family="sans-serif" font-size="13" lengthAdjust="spacingAndGlyphs" textLength="7" x="140.1227" y="617.0038">1</text><!--MD5=[a8fdbe14fd43ebcf4587d24dd3b2ce75]
@startuml trainservice

class Train {
  +trainId: Long
  +trainNumber: String
  +name: String
  +totalCars: Int
  +createdAt: DateTime
}

class Station {
  +stationId: Long
  +name: String
  +city: String
  +country: String
  +createdAt: DateTime
}

class Route {
  +routeId: Long
  +trainId: Long
  +stationId: Long
  +arrivalTime: DateTime
  +departureTime: DateTime
  +stopOrder: Int
  +createdAt: DateTime
}

class Car {
  +carId: Long
  +trainId: Long
  +carNumber: Int
  +type: String
  +totalSeats: Int
}

class Seat {
  +seatId: Long
  +carId: Long
  +seatNumber: Int
  +type: String
}

Train "1" - -> "0..*" Route : follows
Train "1" - -> "0..*" Car : has
Car "1" - -> "0..*" Seat : contains
Station "1" - -> "0..*" Route : part of

Route "2" - -> "1" Ticket : listed in
Seat "1" - -> "1" Ticket : reserved by


@enduml

PlantUML version 1.2020.02(Sun Mar 01 10:22:07 UTC 2020)
(GPL source distribution)
Java Runtime: OpenJDK Runtime Environment
JVM: OpenJDK 64-Bit Server VM
Java Version: 21.0.5+11-Ubuntu-1ubuntu124.04
Operating System: Linux
Default Encoding: UTF-8
Language: en
Country: US
--></g></svg>