<?xml version="1.0" encoding="UTF-8" standalone="no"?><svg xmlns="http://www.w3.org/2000/svg" xmlns:xlink="http://www.w3.org/1999/xlink" contentScriptType="application/ecmascript" contentStyleType="text/css" height="314px" preserveAspectRatio="none" style="width:158px;height:314px;" version="1.1" viewBox="0 0 158 314" width="158px" zoomAndPan="magnify"><defs><filter height="300%" id="fzabwuaqbvqev" width="300%" x="-1" y="-1"><feGaussianBlur result="blurOut" stdDeviation="2.0"/><feColorMatrix in="blurOut" result="blurOut2" type="matrix" values="0 0 0 0 0 0 0 0 0 0 0 0 0 0 0 0 0 0 .4 0"/><feOffset dx="4.0" dy="4.0" in="blurOut2" result="blurOut3"/><feBlend in="SourceGraphic" in2="blurOut3" mode="normal"/></filter></defs><g><!--MD5=[3fd616f346a44cd59a91eb10b19e157c]
class User--><rect fill="#FEFECE" filter="url(#fzabwuaqbvqev)" height="167.8551" id="User" style="stroke: #A80036; stroke-width: 1.5;" width="141" x="6" y="8"/><ellipse cx="58.75" cy="24" fill="#ADD1B2" rx="11" ry="11" style="stroke: #A80036; stroke-width: 1.0;"/><path d="M61.7188,29.6406 Q61.1406,29.9375 60.5,30.0781 Q59.8594,30.2344 59.1563,30.2344 Q56.6563,30.2344 55.3281,28.5938 Q54.0156,26.9375 54.0156,23.8125 Q54.0156,20.6875 55.3281,19.0313 Q56.6563,17.375 59.1563,17.375 Q59.8594,17.375 60.5,17.5313 Q61.1563,17.6875 61.7188,17.9844 L61.7188,20.7031 Q61.0938,20.125 60.5,19.8594 Q59.9063,19.5781 59.2813,19.5781 Q57.9375,19.5781 57.25,20.6563 Q56.5625,21.7188 56.5625,23.8125 Q56.5625,25.9063 57.25,26.9844 Q57.9375,28.0469 59.2813,28.0469 Q59.9063,28.0469 60.5,27.7813 Q61.0938,27.5 61.7188,26.9219 L61.7188,29.6406 Z "/><text fill="#000000" font-family="sans-serif" font-size="12" lengthAdjust="spacingAndGlyphs" textLength="27" x="79.25" y="28.656">User</text><line style="stroke: #A80036; stroke-width: 1.5;" x1="7" x2="146" y1="40" y2="40"/><ellipse cx="17" cy="51" fill="none" rx="3" ry="3" style="stroke: #038048; stroke-width: 1.0;"/><text fill="#000000" font-family="sans-serif" font-size="11" lengthAdjust="spacingAndGlyphs" textLength="67" x="26" y="55.7589">userId: Long</text><ellipse cx="17" cy="65.9819" fill="none" rx="3" ry="3" style="stroke: #038048; stroke-width: 1.0;"/><text fill="#000000" font-family="sans-serif" font-size="11" lengthAdjust="spacingAndGlyphs" textLength="66" x="26" y="70.7408">email: String</text><ellipse cx="17" cy="80.9638" fill="none" rx="3" ry="3" style="stroke: #038048; stroke-width: 1.0;"/><text fill="#000000" font-family="sans-serif" font-size="11" lengthAdjust="spacingAndGlyphs" textLength="115" x="26" y="85.7227">passwordHash: String</text><ellipse cx="17" cy="95.9457" fill="none" rx="3" ry="3" style="stroke: #038048; stroke-width: 1.0;"/><text fill="#000000" font-family="sans-serif" font-size="11" lengthAdjust="spacingAndGlyphs" textLength="85" x="26" y="100.7046">fullName: String</text><ellipse cx="17" cy="110.9276" fill="none" rx="3" ry="3" style="stroke: #038048; stroke-width: 1.0;"/><text fill="#000000" font-family="sans-serif" font-size="11" lengthAdjust="spacingAndGlyphs" textLength="115" x="26" y="115.6865">phoneNumber: String</text><ellipse cx="17" cy="125.9094" fill="none" rx="3" ry="3" style="stroke: #038048; stroke-width: 1.0;"/><text fill="#000000" font-family="sans-serif" font-size="11" lengthAdjust="spacingAndGlyphs" textLength="59" x="26" y="130.6684">role: String</text><ellipse cx="17" cy="140.8913" fill="none" rx="3" ry="3" style="stroke: #038048; stroke-width: 1.0;"/><text fill="#000000" font-family="sans-serif" font-size="11" lengthAdjust="spacingAndGlyphs" textLength="105" x="26" y="145.6502">createdAt: DateTime</text><ellipse cx="17" cy="155.8732" fill="none" rx="3" ry="3" style="stroke: #038048; stroke-width: 1.0;"/><text fill="#000000" font-family="sans-serif" font-size="11" lengthAdjust="spacingAndGlyphs" textLength="110" x="26" y="160.6321">updatedAt: DateTime</text><line style="stroke: #A80036; stroke-width: 1.5;" x1="7" x2="146" y1="167.8551" y2="167.8551"/><!--MD5=[ac6bea31e13c94c7baa9ad18feb7405e]
class Ticket--><rect fill="#FEFECE" filter="url(#fzabwuaqbvqev)" height="48" id="Ticket" style="stroke: #A80036; stroke-width: 1.5;" width="65" x="44" y="255"/><ellipse cx="59" cy="271" fill="#ADD1B2" rx="11" ry="11" style="stroke: #A80036; stroke-width: 1.0;"/><path d="M61.9688,276.6406 Q61.3906,276.9375 60.75,277.0781 Q60.1094,277.2344 59.4063,277.2344 Q56.9063,277.2344 55.5781,275.5938 Q54.2656,273.9375 54.2656,270.8125 Q54.2656,267.6875 55.5781,266.0313 Q56.9063,264.375 59.4063,264.375 Q60.1094,264.375 60.75,264.5313 Q61.4063,264.6875 61.9688,264.9844 L61.9688,267.7031 Q61.3438,267.125 60.75,266.8594 Q60.1563,266.5781 59.5313,266.5781 Q58.1875,266.5781 57.5,267.6563 Q56.8125,268.7188 56.8125,270.8125 Q56.8125,272.9063 57.5,273.9844 Q58.1875,275.0469 59.5313,275.0469 Q60.1563,275.0469 60.75,274.7813 Q61.3438,274.5 61.9688,273.9219 L61.9688,276.6406 Z "/><text fill="#000000" font-family="sans-serif" font-size="12" lengthAdjust="spacingAndGlyphs" textLength="33" x="73" y="275.656">Ticket</text><line style="stroke: #A80036; stroke-width: 1.5;" x1="45" x2="108" y1="287" y2="287"/><line style="stroke: #A80036; stroke-width: 1.5;" x1="45" x2="108" y1="295" y2="295"/><!--MD5=[1b3d35e004f35d7d1413417cddbf8e20]
link User to Ticket--><path d="M76.5,176.03 C76.5,202.48 76.5,229.98 76.5,249.74 " fill="none" id="User-&gt;Ticket" style="stroke: #A80036; stroke-width: 1.0;"/><polygon fill="#A80036" points="76.5,254.85,80.5,245.85,76.5,249.85,72.5,245.85,76.5,254.85" style="stroke: #A80036; stroke-width: 1.0;"/><text fill="#000000" font-family="sans-serif" font-size="13" lengthAdjust="spacingAndGlyphs" textLength="21" x="77.5" y="220.897">has</text><text fill="#000000" font-family="sans-serif" font-size="13" lengthAdjust="spacingAndGlyphs" textLength="7" x="69.2102" y="197.6249">1</text><text fill="#000000" font-family="sans-serif" font-size="13" lengthAdjust="spacingAndGlyphs" textLength="20" x="53.8125" y="243.0672">0..*</text><!--MD5=[f4e23d33769b0478572a36e5b43acbe0]
@startuml userservice

class User {
  +userId: Long
  +email: String
  +passwordHash: String
  +fullName: String
  +phoneNumber: String
  +role: String
  +createdAt: DateTime
  +updatedAt: DateTime
}

User "1" - -> "0..*" Ticket : has

@enduml

PlantUML version 1.2020.02(Sun Mar 01 10:22:07 UTC 2020)
(GPL source distribution)
Java Runtime: OpenJDK Runtime Environment
JVM: OpenJDK 64-Bit Server VM
Java Version: 21.0.5+11-Ubuntu-1ubuntu124.04
Operating System: Linux
Default Encoding: UTF-8
Language: en
Country: US
--></g></svg>